<svg width="122" height="32" viewBox="0 0 122 32" fill="none" xmlns="http://www.w3.org/2000/svg">
<path d="M117 0H31V32H117C119.761 32 122 29.7614 122 27V5C122 2.23858 119.761 0 117 0Z" fill="#0F1418"/>
<path d="M51.6561 22H49.078L48.3309 19.6636H44.5956L43.8558 22H41.2924L45.1156 11.4971H47.9208L51.6561 22ZM47.7889 17.8472L46.661 14.3169C46.578 14.0532 46.5194 13.7383 46.4852 13.3721H46.4266C46.4022 13.6797 46.3412 13.9849 46.2435 14.2876L45.101 17.8472H47.7889ZM58.6037 21.729C58.0812 22.0317 57.3269 22.1831 56.3405 22.1831C55.1882 22.1831 54.2556 21.834 53.5427 21.1357C52.8298 20.4375 52.4733 19.5366 52.4733 18.4331C52.4733 17.1587 52.8542 16.1553 53.6159 15.4229C54.3825 14.6855 55.4055 14.3169 56.6848 14.3169C57.5686 14.3169 58.2082 14.4341 58.6037 14.6685V16.6313C58.1203 16.27 57.5808 16.0894 56.9851 16.0894C56.321 16.0894 55.7937 16.2847 55.403 16.6753C55.0173 17.061 54.8244 17.5957 54.8244 18.2793C54.8244 18.9434 55.01 19.4658 55.3811 19.8467C55.7521 20.2227 56.2624 20.4106 56.9118 20.4106C57.488 20.4106 58.052 20.23 58.6037 19.8687V21.729ZM66.5474 22H64.3574V20.9233H64.3281C63.8252 21.7632 63.0806 22.1831 62.0943 22.1831C61.3667 22.1831 60.793 21.978 60.3731 21.5679C59.958 21.1528 59.7505 20.6011 59.7505 19.9126C59.7505 18.4575 60.6123 17.6177 62.336 17.3931L64.3721 17.1221C64.3721 16.3018 63.9278 15.8916 63.0391 15.8916C62.1455 15.8916 61.2959 16.1577 60.4903 16.6899V14.9468C60.8125 14.7808 61.252 14.6343 61.8086 14.5073C62.3701 14.3804 62.8804 14.3169 63.3394 14.3169C65.478 14.3169 66.5474 15.3838 66.5474 17.5176V22ZM64.3721 18.9531V18.4478L63.0098 18.6235C62.2578 18.7212 61.8819 19.0605 61.8819 19.6416C61.8819 19.9053 61.9722 20.1226 62.1529 20.2935C62.3384 20.4595 62.5874 20.5425 62.8999 20.5425C63.3345 20.5425 63.6885 20.3936 63.9619 20.0957C64.2354 19.793 64.3721 19.4121 64.3721 18.9531ZM75.8973 22H73.5829V20.9673H73.5536C73.0262 21.7778 72.2523 22.1831 71.2318 22.1831C70.2943 22.1831 69.5399 21.8535 68.9686 21.1943C68.3973 20.5303 68.1117 19.605 68.1117 18.4185C68.1117 17.1782 68.4266 16.1846 69.0565 15.4375C69.6864 14.6904 70.5116 14.3169 71.5321 14.3169C72.4989 14.3169 73.1727 14.6636 73.5536 15.3569H73.5829V10.8965H75.8973V22ZM73.6268 18.3525V17.7886C73.6268 17.3003 73.4852 16.895 73.202 16.5728C72.9188 16.2505 72.5501 16.0894 72.096 16.0894C71.5833 16.0894 71.1829 16.292 70.8949 16.6973C70.6068 17.0977 70.4627 17.6494 70.4627 18.3525C70.4627 19.0117 70.6019 19.5195 70.8802 19.876C71.1585 20.2324 71.5443 20.4106 72.0374 20.4106C72.5062 20.4106 72.8871 20.2227 73.18 19.8467C73.4779 19.4707 73.6268 18.9727 73.6268 18.3525ZM84.7638 18.9092H79.8713C79.9494 19.998 80.6354 20.5425 81.9294 20.5425C82.7546 20.5425 83.4796 20.3472 84.1046 19.9565V21.6265C83.4113 21.9976 82.5104 22.1831 81.402 22.1831C80.1911 22.1831 79.2511 21.8486 78.5822 21.1797C77.9132 20.5059 77.5788 19.5684 77.5788 18.3672C77.5788 17.1221 77.9401 16.1357 78.6628 15.4082C79.3854 14.6807 80.2741 14.3169 81.3288 14.3169C82.4225 14.3169 83.2672 14.6416 83.8629 15.291C84.4635 15.9404 84.7638 16.8218 84.7638 17.9351V18.9092ZM82.6178 17.4883C82.6178 16.4141 82.1833 15.877 81.3141 15.877C80.943 15.877 80.6208 16.0308 80.3473 16.3384C80.0788 16.646 79.9152 17.0293 79.8566 17.4883H82.6178ZM98.23 22H95.9228V17.7227C95.9228 16.6338 95.5224 16.0894 94.7217 16.0894C94.3408 16.0894 94.0307 16.2529 93.7915 16.5801C93.5522 16.9072 93.4326 17.3149 93.4326 17.8032V22H91.1181V17.6787C91.1181 16.6191 90.7251 16.0894 89.9389 16.0894C89.5434 16.0894 89.2261 16.2456 88.9868 16.5581C88.7524 16.8706 88.6352 17.2954 88.6352 17.8325V22H86.3208V14.5H88.6352V15.6719H88.6645C88.9038 15.2715 89.2383 14.9468 89.6679 14.6978C90.1025 14.4438 90.5762 14.3169 91.0888 14.3169C92.1484 14.3169 92.8735 14.7832 93.2641 15.7158C93.8354 14.7832 94.6753 14.3169 95.7837 14.3169C97.4145 14.3169 98.23 15.3228 98.23 17.3345V22ZM101.413 13.3135C101.022 13.3135 100.702 13.1987 100.453 12.9692C100.204 12.7349 100.08 12.4492 100.08 12.1123C100.08 11.7656 100.204 11.4824 100.453 11.2627C100.702 11.043 101.022 10.9331 101.413 10.9331C101.808 10.9331 102.128 11.043 102.372 11.2627C102.621 11.4824 102.746 11.7656 102.746 12.1123C102.746 12.4639 102.621 12.752 102.372 12.9766C102.128 13.2012 101.808 13.3135 101.413 13.3135ZM102.555 22H100.241V14.5H102.555V22ZM110.924 22H108.734V20.9233H108.705C108.202 21.7632 107.457 22.1831 106.471 22.1831C105.743 22.1831 105.17 21.978 104.75 21.5679C104.335 21.1528 104.127 20.6011 104.127 19.9126C104.127 18.4575 104.989 17.6177 106.713 17.3931L108.749 17.1221C108.749 16.3018 108.304 15.8916 107.416 15.8916C106.522 15.8916 105.672 16.1577 104.867 16.6899V14.9468C105.189 14.7808 105.629 14.6343 106.185 14.5073C106.747 14.3804 107.257 14.3169 107.716 14.3169C109.855 14.3169 110.924 15.3838 110.924 17.5176V22ZM108.749 18.9531V18.4478L107.386 18.6235C106.634 18.7212 106.258 19.0605 106.258 19.6416C106.258 19.9053 106.349 20.1226 106.529 20.2935C106.715 20.4595 106.964 20.5425 107.276 20.5425C107.711 20.5425 108.065 20.3936 108.338 20.0957C108.612 19.793 108.749 19.4121 108.749 18.9531Z" fill="white"/>
<path d="M117 0H5C2.23858 0 0 2.23858 0 5V27C0 29.7614 2.23858 32 5 32H117C119.761 32 122 29.7614 122 27V5C122 2.23858 119.761 0 117 0Z" fill="url(#paint0_linear_31_44)"/>
<path d="M5 0.5H30.5V31.5H5C2.51472 31.5 0.5 29.4853 0.5 27V5C0.5 2.51472 2.51472 0.5 5 0.5Z" fill="white" stroke="black"/>
<defs>
<linearGradient id="paint0_linear_31_44" x1="0" y1="0" x2="0" y2="32" gradientUnits="userSpaceOnUse">
<stop stop-color="#BBBBBB" stop-opacity="0.1"/>
<stop offset="1" stop-opacity="0.1"/>
</linearGradient>
</defs>
</svg>
