<svg width="92" height="32" viewBox="0 0 92 32" fill="none" xmlns="http://www.w3.org/2000/svg">
<path d="M87 0H31V32H87C89.7614 32 92 29.7614 92 27V5C92 2.23858 89.7614 0 87 0Z" fill="#0F1418"/>
<path d="M43.6446 22V11.4971H47.3653C51.0957 11.4971 52.961 13.2036 52.961 16.6167C52.961 18.2524 52.4507 19.5586 51.4302 20.5352C50.4146 21.5117 49.0596 22 47.3653 22H43.6446ZM46.0103 13.4233V20.0811H47.1821C48.2075 20.0811 49.0108 19.7734 49.5918 19.1582C50.1778 18.543 50.4707 17.7056 50.4707 16.646C50.4707 15.645 50.1802 14.8589 49.5991 14.2876C49.023 13.7114 48.2124 13.4233 47.1675 13.4233H46.0103ZM54.8841 22V11.4971H58.7074C59.8792 11.4971 60.7801 11.7119 61.41 12.1416C62.0399 12.5713 62.3548 13.1768 62.3548 13.958C62.3548 14.5244 62.162 15.02 61.7762 15.4448C61.3954 15.8696 60.9071 16.165 60.3114 16.3311V16.3604C61.0584 16.4531 61.6541 16.729 62.0985 17.188C62.5477 17.647 62.7723 18.2061 62.7723 18.8652C62.7723 19.8271 62.4281 20.5913 61.7396 21.1577C61.0511 21.7192 60.1112 22 58.9198 22H54.8841ZM57.2498 13.2402V15.7305H58.2899C58.7782 15.7305 59.1615 15.6133 59.4398 15.3789C59.723 15.1396 59.8646 14.8125 59.8646 14.3975C59.8646 13.626 59.2884 13.2402 58.1361 13.2402H57.2498ZM57.2498 17.4883V20.2568H58.5316C59.0785 20.2568 59.5057 20.1299 59.8133 19.876C60.1258 19.6221 60.2821 19.2754 60.2821 18.8359C60.2821 18.416 60.1283 18.0864 59.8206 17.8472C59.5179 17.6079 59.0931 17.4883 58.5462 17.4883H57.2498ZM70.943 22H64.6881V11.4971H67.0539V20.0811H70.943V22ZM74.9096 18.3818V22H72.5439V11.4971H76.25C78.8965 11.4971 80.2197 12.6128 80.2197 14.8442C80.2197 15.8989 79.8388 16.7534 79.0771 17.4077C78.3203 18.0571 77.3071 18.3818 76.0376 18.3818H74.9096ZM74.9096 13.3135V16.5874H75.8398C77.0996 16.5874 77.7295 16.0356 77.7295 14.9321C77.7295 13.853 77.0996 13.3135 75.8398 13.3135H74.9096Z" fill="white"/>
<path d="M87 0H5C2.23858 0 0 2.23858 0 5V27C0 29.7614 2.23857 32 5 32H87C89.7614 32 92 29.7614 92 27V5C92 2.23858 89.7614 0 87 0Z" fill="url(#paint0_linear_31_2)"/>
<path d="M31 0H5C2.23858 0 0 2.23858 0 5V27C0 29.7614 2.23858 32 5 32H31V0Z" fill="url(#paint1_linear_31_2)"/>
<path fill-rule="evenodd" clip-rule="evenodd" d="M6.76351 4.1882C6.64086 4.17988 6.55088 4.24352 6.61863 4.49642L8.57591 11.8006L8.57558 11.8007L6.73522 12.6559C6.73522 12.6559 6.18428 12.912 6.33923 13.49L8.75519 22.5065C8.75519 22.5065 8.90995 23.0843 9.46094 22.8283C13.3009 21.0436 15.5371 20.0043 15.5371 20.0043L16.8256 19.4053C16.8256 19.4053 17.3348 19.1671 17.2341 18.633C17.2303 18.6125 17.2273 18.5926 17.2216 18.5713L16.1076 14.4138L15.4629 12.008C15.3908 11.7515 15.4629 12.008 14.7982 9.51203C14.7982 9.51203 14.6433 8.934 13.9741 8.52365L7.1329 4.32867C7.1329 4.32867 6.92121 4.1989 6.76351 4.1882ZM21.8087 9.11841C21.7316 9.11708 21.6423 9.13581 21.5391 9.18382L16.0232 11.7313L16.8701 14.8901L16.8686 14.8891L17.94 18.9053C17.9457 18.9265 17.9485 18.9466 17.9524 18.967C18.0028 19.4269 17.544 19.7393 17.544 19.7393L15.6986 20.6021L16.1944 22.4574L16.202 22.4879C16.202 22.4879 16.3569 23.0659 17.026 23.4763L23.8673 27.6713C23.8673 27.6713 24.5362 28.0816 24.3814 27.5035C23.0162 22.4089 24.3812 27.503 22.4271 20.2104L24.2649 19.3562C24.2648 19.3562 24.8157 19.1001 24.6608 18.5222L22.2448 9.50577C22.2448 9.50577 22.1424 9.12417 21.8087 9.11841V9.11841Z" fill="white"/>
<defs>
<linearGradient id="paint0_linear_31_2" x1="0" y1="0" x2="0" y2="32" gradientUnits="userSpaceOnUse">
<stop stop-color="#BBBBBB" stop-opacity="0.1"/>
<stop offset="1" stop-opacity="0.1"/>
</linearGradient>
<linearGradient id="paint1_linear_31_2" x1="5.7742e-08" y1="16" x2="31" y2="16" gradientUnits="userSpaceOnUse">
<stop stop-color="#0057B7"/>
<stop offset="1" stop-color="#FFD700"/>
</linearGradient>
</defs>
</svg>
