<svg width="156" height="32" viewBox="0 0 156 32" fill="none" xmlns="http://www.w3.org/2000/svg">
<path d="M151 0H31V32H151C153.761 32 156 29.7614 156 27V5C156 2.23858 153.761 0 151 0Z" fill="#0F1418"/>
<path d="M48.6777 21.2969C47.6523 21.8877 46.3779 22.1831 44.8544 22.1831C43.165 22.1831 41.832 21.7168 40.8554 20.7842C39.8837 19.8467 39.3979 18.5576 39.3979 16.917C39.3979 15.2666 39.9301 13.9214 40.9946 12.8813C42.059 11.8413 43.475 11.3213 45.2426 11.3213C46.3559 11.3213 47.3373 11.4751 48.1869 11.7827V14.002C47.3764 13.5332 46.3852 13.2988 45.2133 13.2988C44.2319 13.2988 43.4311 13.6187 42.811 14.2583C42.1957 14.8931 41.8881 15.7427 41.8881 16.8071C41.8881 17.8862 42.164 18.7212 42.7157 19.312C43.2724 19.9028 44.0219 20.1982 44.9643 20.1982C45.5307 20.1982 45.9799 20.1177 46.3119 19.9565V17.9058H44.2099V16.0161H48.6777V21.2969ZM54.2483 22.1831C52.9983 22.1831 52.0144 21.834 51.2966 21.1357C50.5837 20.4326 50.2273 19.4805 50.2273 18.2793C50.2273 17.0391 50.5984 16.0698 51.3406 15.3716C52.0828 14.6685 53.0862 14.3169 54.3508 14.3169C55.5959 14.3169 56.5725 14.6685 57.2805 15.3716C57.9885 16.0698 58.3425 16.9951 58.3425 18.1475C58.3425 19.3926 57.9763 20.3765 57.2439 21.0991C56.5163 21.8218 55.5178 22.1831 54.2483 22.1831ZM54.3069 16.0894C53.76 16.0894 53.3352 16.2773 53.0325 16.6533C52.7297 17.0293 52.5784 17.5615 52.5784 18.25C52.5784 19.6904 53.1594 20.4106 54.3215 20.4106C55.4299 20.4106 55.9841 19.6709 55.9841 18.1914C55.9841 16.79 55.425 16.0894 54.3069 16.0894ZM63.5982 22.1831C62.3482 22.1831 61.3643 21.834 60.6465 21.1357C59.9337 20.4326 59.5772 19.4805 59.5772 18.2793C59.5772 17.0391 59.9483 16.0698 60.6905 15.3716C61.4327 14.6685 62.4361 14.3169 63.7007 14.3169C64.9459 14.3169 65.9224 14.6685 66.6304 15.3716C67.3384 16.0698 67.6924 16.9951 67.6924 18.1475C67.6924 19.3926 67.3262 20.3765 66.5938 21.0991C65.8663 21.8218 64.8677 22.1831 63.5982 22.1831ZM63.6568 16.0894C63.1099 16.0894 62.6851 16.2773 62.3824 16.6533C62.0797 17.0293 61.9283 17.5615 61.9283 18.25C61.9283 19.6904 62.5093 20.4106 63.6714 20.4106C64.7798 20.4106 65.334 19.6709 65.334 18.1914C65.334 16.79 64.775 16.0894 63.6568 16.0894ZM76.7274 21.1431C76.7274 22.5347 76.3246 23.6113 75.5189 24.373C74.7133 25.1396 73.5463 25.5229 72.018 25.5229C71.0072 25.5229 70.2064 25.3789 69.6156 25.0908V23.1426C70.3871 23.5918 71.1659 23.8164 71.952 23.8164C72.7333 23.8164 73.3388 23.6089 73.7684 23.1938C74.1981 22.7837 74.413 22.2246 74.413 21.5166V20.9233H74.3837C73.8563 21.7632 73.0775 22.1831 72.0472 22.1831C71.0902 22.1831 70.3309 21.8462 69.7694 21.1724C69.2079 20.4985 68.9271 19.5952 68.9271 18.4624C68.9271 17.1929 69.2396 16.1846 69.8646 15.4375C70.4896 14.6904 71.3124 14.3169 72.3329 14.3169C73.246 14.3169 73.9296 14.6685 74.3837 15.3716H74.413V14.5H76.7274V21.1431ZM74.4423 18.3965V17.8032C74.4423 17.3296 74.3007 16.9268 74.0175 16.5947C73.7391 16.2578 73.3754 16.0894 72.9262 16.0894C72.4135 16.0894 72.0106 16.2896 71.7177 16.6899C71.4247 17.0903 71.2782 17.6543 71.2782 18.3818C71.2782 19.0068 71.4174 19.5024 71.6957 19.8687C71.974 20.23 72.3549 20.4106 72.8383 20.4106C73.3168 20.4106 73.7025 20.2275 73.9955 19.8613C74.2933 19.4902 74.4423 19.002 74.4423 18.3965ZM81.1555 22H78.841V10.8965H81.1555V22ZM90.022 18.9092H85.1294C85.2075 19.998 85.8936 20.5425 87.1875 20.5425C88.0127 20.5425 88.7378 20.3472 89.3628 19.9565V21.6265C88.6695 21.9976 87.7686 22.1831 86.6602 22.1831C85.4492 22.1831 84.5093 21.8486 83.8404 21.1797C83.1714 20.5059 82.8369 19.5684 82.8369 18.3672C82.8369 17.1221 83.1983 16.1357 83.9209 15.4082C84.6436 14.6807 85.5322 14.3169 86.5869 14.3169C87.6807 14.3169 88.5254 14.6416 89.1211 15.291C89.7217 15.9404 90.022 16.8218 90.022 17.9351V18.9092ZM87.876 17.4883C87.876 16.4141 87.4414 15.877 86.5723 15.877C86.2012 15.877 85.8789 16.0308 85.6055 16.3384C85.3369 16.646 85.1734 17.0293 85.1148 17.4883H87.876ZM95.6481 21.5972V19.2534C96.0729 19.6099 96.5343 19.8784 97.0324 20.0591C97.5304 20.2349 98.0334 20.3228 98.5412 20.3228C98.839 20.3228 99.0978 20.2959 99.3175 20.2422C99.5421 20.1885 99.7277 20.1152 99.8742 20.0225C100.026 19.9248 100.138 19.8125 100.211 19.6855C100.284 19.5537 100.321 19.4121 100.321 19.2607C100.321 19.0557 100.262 18.8726 100.145 18.7114C100.028 18.5503 99.8669 18.4014 99.6618 18.2646C99.4616 18.1279 99.2223 17.9961 98.944 17.8691C98.6657 17.7422 98.3654 17.6128 98.0431 17.481C97.2228 17.1392 96.61 16.7217 96.2047 16.2285C95.8044 15.7354 95.6042 15.1396 95.6042 14.4414C95.6042 13.8945 95.714 13.4258 95.9338 13.0352C96.1535 12.6396 96.4513 12.3149 96.8273 12.061C97.2082 11.8071 97.6476 11.6216 98.1457 11.5044C98.6437 11.3823 99.1711 11.3213 99.7277 11.3213C100.275 11.3213 100.758 11.3555 101.178 11.4238C101.603 11.4873 101.993 11.5874 102.35 11.7241V13.9141C102.174 13.792 101.981 13.6846 101.771 13.5918C101.566 13.499 101.354 13.4233 101.134 13.3647C100.914 13.3013 100.694 13.2549 100.475 13.2256C100.26 13.1963 100.055 13.1816 99.8595 13.1816C99.591 13.1816 99.3468 13.2085 99.1271 13.2622C98.9074 13.311 98.7218 13.3818 98.5705 13.4746C98.4191 13.5674 98.3019 13.6797 98.2189 13.8115C98.1359 13.9385 98.0944 14.0825 98.0944 14.2437C98.0944 14.4194 98.1408 14.5781 98.2336 14.7197C98.3263 14.8564 98.4582 14.9883 98.6291 15.1152C98.8 15.2373 99.0075 15.3594 99.2516 15.4814C99.4958 15.5986 99.7716 15.7207 100.079 15.8477C100.499 16.0234 100.875 16.2114 101.207 16.4116C101.544 16.6069 101.832 16.8291 102.071 17.0781C102.311 17.3271 102.494 17.6128 102.621 17.9351C102.748 18.2524 102.811 18.6235 102.811 19.0483C102.811 19.6343 102.699 20.1274 102.474 20.5278C102.255 20.9233 101.954 21.2456 101.573 21.4946C101.193 21.7388 100.748 21.9146 100.24 22.022C99.7375 22.1294 99.2052 22.1831 98.6437 22.1831C98.0675 22.1831 97.5182 22.1343 96.9958 22.0366C96.4782 21.939 96.029 21.7925 95.6481 21.5972ZM110.176 21.729C109.654 22.0317 108.899 22.1831 107.913 22.1831C106.761 22.1831 105.828 21.834 105.115 21.1357C104.402 20.4375 104.046 19.5366 104.046 18.4331C104.046 17.1587 104.427 16.1553 105.188 15.4229C105.955 14.6855 106.978 14.3169 108.257 14.3169C109.141 14.3169 109.781 14.4341 110.176 14.6685V16.6313C109.693 16.27 109.153 16.0894 108.558 16.0894C107.894 16.0894 107.366 16.2847 106.976 16.6753C106.59 17.061 106.397 17.5957 106.397 18.2793C106.397 18.9434 106.583 19.4658 106.954 19.8467C107.325 20.2227 107.835 20.4106 108.484 20.4106C109.061 20.4106 109.624 20.23 110.176 19.8687V21.729ZM119.079 22H116.772V17.7373C116.772 16.6387 116.372 16.0894 115.571 16.0894C115.161 16.0894 114.829 16.2432 114.575 16.5508C114.321 16.8584 114.194 17.249 114.194 17.7227V22H111.88V10.8965H114.194V15.6133H114.223C114.79 14.749 115.559 14.3169 116.531 14.3169C118.23 14.3169 119.079 15.3423 119.079 17.3931V22ZM124.672 22.1831C123.422 22.1831 122.438 21.834 121.72 21.1357C121.007 20.4326 120.651 19.4805 120.651 18.2793C120.651 17.0391 121.022 16.0698 121.764 15.3716C122.506 14.6685 123.51 14.3169 124.775 14.3169C126.02 14.3169 126.996 14.6685 127.704 15.3716C128.412 16.0698 128.766 16.9951 128.766 18.1475C128.766 19.3926 128.4 20.3765 127.668 21.0991C126.94 21.8218 125.942 22.1831 124.672 22.1831ZM124.731 16.0894C124.184 16.0894 123.759 16.2773 123.456 16.6533C123.153 17.0293 123.002 17.5615 123.002 18.25C123.002 19.6904 123.583 20.4106 124.745 20.4106C125.854 20.4106 126.408 19.6709 126.408 18.1914C126.408 16.79 125.849 16.0894 124.731 16.0894ZM132.762 22H130.448V10.8965H132.762V22ZM141.131 22H138.941V20.9233H138.911C138.408 21.7632 137.664 22.1831 136.678 22.1831C135.95 22.1831 135.376 21.978 134.956 21.5679C134.541 21.1528 134.334 20.6011 134.334 19.9126C134.334 18.4575 135.196 17.6177 136.919 17.3931L138.955 17.1221C138.955 16.3018 138.511 15.8916 137.622 15.8916C136.729 15.8916 135.879 16.1577 135.074 16.6899V14.9468C135.396 14.7808 135.835 14.6343 136.392 14.5073C136.953 14.3804 137.464 14.3169 137.923 14.3169C140.061 14.3169 141.131 15.3838 141.131 17.5176V22ZM138.955 18.9531V18.4478L137.593 18.6235C136.841 18.7212 136.465 19.0605 136.465 19.6416C136.465 19.9053 136.555 20.1226 136.736 20.2935C136.922 20.4595 137.171 20.5425 137.483 20.5425C137.918 20.5425 138.272 20.3936 138.545 20.0957C138.819 19.793 138.955 19.4121 138.955 18.9531ZM148.034 16.5874C147.756 16.436 147.431 16.3604 147.06 16.3604C146.557 16.3604 146.164 16.5459 145.881 16.917C145.598 17.2832 145.456 17.7837 145.456 18.4185V22H143.142V14.5H145.456V15.8916H145.485C145.852 14.876 146.511 14.3682 147.463 14.3682C147.707 14.3682 147.898 14.3975 148.034 14.4561V16.5874Z" fill="white"/>
<path d="M151 0H5C2.23858 0 0 2.23858 0 5V27C0 29.7614 2.23857 32 5 32H151C153.761 32 156 29.7614 156 27V5C156 2.23858 153.761 0 151 0Z" fill="url(#paint0_linear_31_13)"/>
<path d="M31 0H5C2.23858 0 0 2.23858 0 5V27C0 29.7614 2.23858 32 5 32H31V0Z" fill="url(#paint1_linear_31_13)"/>
<path d="M24.2785 6.45124V4.80413L25.4473 3.87085H12.7983L5.16029 10.6616H10.2258C10.2166 10.7901 10.2128 10.9063 10.2128 11.0381C10.2128 12.2989 10.6398 13.3418 11.4945 14.1749C12.3492 15.0094 13.4017 15.4238 14.6481 15.4238C14.9392 15.4238 15.2247 15.4015 15.5019 15.3618C15.33 15.755 15.2432 16.1192 15.2432 16.4591C15.2432 17.0564 15.5093 17.6948 16.0396 18.3729C13.7194 18.5345 12.0147 18.9616 10.928 19.653C10.3052 20.0461 9.80433 20.5423 9.42643 21.1367C9.0485 21.7355 8.86002 22.3775 8.86002 23.0699C8.86002 23.6534 8.98199 24.1789 9.2278 24.6462C9.47362 25.1135 9.79421 25.4973 10.1925 25.7945C10.5898 26.0949 11.0481 26.3449 11.5656 26.5486C12.0821 26.7509 12.595 26.8945 13.1068 26.9758C13.617 27.057 14.1242 27.0967 14.627 27.0967C15.4235 27.0967 16.2209 26.9918 17.0248 26.7829C17.8268 26.5722 18.579 26.2603 19.2822 25.8459C19.9835 25.4343 20.5545 24.8729 20.9925 24.1694C21.4296 23.4629 21.6486 22.6691 21.6486 21.7902C21.6486 21.1239 21.5156 20.5177 21.2495 19.9671C20.9852 19.4184 20.6618 18.9667 20.2765 18.6157C19.892 18.2641 19.5077 17.9409 19.1224 17.6499C18.738 17.3568 18.4127 17.0601 18.1485 16.7539C17.8833 16.4487 17.7502 16.1458 17.7502 15.8476C17.7502 15.55 17.8528 15.2627 18.0587 14.9848C18.263 14.706 18.5125 14.4375 18.8044 14.18C19.0964 13.923 19.3884 13.6376 19.6794 13.3252C19.9705 13.0139 20.22 12.6098 20.4251 12.115C20.6312 11.6203 20.7328 11.0599 20.7328 10.4362C20.7328 9.62252 20.5822 8.95671 20.2865 8.42126C20.2514 8.35942 20.2145 8.31219 20.1756 8.23846L23.541 5.41555V6.45095C23.1037 6.50718 23.1492 6.77428 23.1492 7.09421V14.8765C23.1492 15.2369 23.4375 15.5318 23.7899 15.5318H24.0258C24.3782 15.5318 24.6665 15.2369 24.6665 14.8765V7.09421C24.6665 6.77505 24.7125 6.50824 24.2785 6.45124H24.2785ZM17.9294 19.9076C17.9969 19.953 18.1485 20.0758 18.3859 20.2728C18.6254 20.469 18.7878 20.6173 18.8747 20.7213C18.9598 20.8219 19.0864 20.9732 19.2518 21.1778C19.4181 21.3819 19.5308 21.5591 19.5899 21.7061C19.6491 21.8559 19.7092 22.0364 19.7701 22.2471C19.8284 22.4555 19.8579 22.6691 19.8579 22.8859C19.8579 23.9171 19.4698 24.6811 18.6955 25.1758C17.9193 25.6706 16.9943 25.9182 15.9197 25.9182C15.3764 25.9182 14.8432 25.8521 14.3193 25.7249C13.7963 25.5969 13.2955 25.4022 12.8178 25.1442C12.34 24.8866 11.9557 24.527 11.6645 24.0677C11.3725 23.6056 11.2265 23.0749 11.2265 22.4801C11.2265 21.8559 11.392 21.3133 11.7246 20.8527C12.0554 20.3915 12.4897 20.0427 13.0276 19.8054C13.5635 19.5667 14.1068 19.3976 14.6575 19.2974C15.2082 19.1945 15.7691 19.1429 16.3393 19.1429C16.6035 19.1429 16.8086 19.1581 16.9546 19.185C16.9815 19.1983 17.1339 19.3102 17.412 19.5215C17.6902 19.7309 17.8629 19.8599 17.9295 19.9076H17.9294ZM17.7308 13.8243C17.2928 14.3601 16.6821 14.628 15.9003 14.628C15.199 14.628 14.5817 14.3398 14.0513 13.7624C13.5191 13.1864 13.1393 12.5328 12.9074 11.8008C12.6745 11.0684 12.5581 10.3502 12.5581 9.64469C12.5581 8.81641 12.7707 8.11132 13.1957 7.52921C13.6207 6.94557 14.2305 6.65312 15.0253 6.65312C15.7275 6.65312 16.3484 6.95785 16.8844 7.56986C17.4222 8.17982 17.8075 8.865 18.0386 9.62437C18.2705 10.3828 18.3859 11.108 18.3859 11.8008C18.3859 12.6141 18.1669 13.2893 17.7309 13.8243H17.7308Z" fill="white"/>
<defs>
<linearGradient id="paint0_linear_31_13" x1="0" y1="0" x2="0" y2="32" gradientUnits="userSpaceOnUse">
<stop stop-color="#BBBBBB" stop-opacity="0.1"/>
<stop offset="1" stop-opacity="0.1"/>
</linearGradient>
<linearGradient id="paint1_linear_31_13" x1="5.7742e-08" y1="16" x2="31" y2="16" gradientUnits="userSpaceOnUse">
<stop stop-color="#7AA6CC"/>
<stop offset="1" stop-color="#3169AA"/>
</linearGradient>
</defs>
</svg>
