<svg width="158" height="31" viewBox="0 0 158 31" fill="none" xmlns="http://www.w3.org/2000/svg">
<path d="M153 0H31V31H153C155.761 31 158 28.7614 158 26V5C158 2.23858 155.761 0 153 0Z" fill="#0F1418"/>
<path d="M49.6777 20.2969C48.6523 20.8877 47.3779 21.1831 45.8544 21.1831C44.165 21.1831 42.832 20.7168 41.8554 19.7842C40.8837 18.8467 40.3979 17.5576 40.3979 15.917C40.3979 14.2666 40.9301 12.9214 41.9946 11.8813C43.059 10.8413 44.475 10.3213 46.2426 10.3213C47.3559 10.3213 48.3373 10.4751 49.1869 10.7827V13.002C48.3764 12.5332 47.3852 12.2988 46.2133 12.2988C45.2319 12.2988 44.4311 12.6187 43.811 13.2583C43.1957 13.8931 42.8881 14.7427 42.8881 15.8071C42.8881 16.8862 43.164 17.7212 43.7157 18.312C44.2724 18.9028 45.0219 19.1982 45.9643 19.1982C46.5307 19.1982 46.9799 19.1177 47.3119 18.9565V16.9058H45.2099V15.0161H49.6777V20.2969ZM55.2483 21.1831C53.9983 21.1831 53.0144 20.834 52.2966 20.1357C51.5837 19.4326 51.2273 18.4805 51.2273 17.2793C51.2273 16.0391 51.5984 15.0698 52.3406 14.3716C53.0828 13.6685 54.0862 13.3169 55.3508 13.3169C56.5959 13.3169 57.5725 13.6685 58.2805 14.3716C58.9885 15.0698 59.3425 15.9951 59.3425 17.1475C59.3425 18.3926 58.9763 19.3765 58.2439 20.0991C57.5163 20.8218 56.5178 21.1831 55.2483 21.1831ZM55.3069 15.0894C54.76 15.0894 54.3352 15.2773 54.0325 15.6533C53.7297 16.0293 53.5784 16.5615 53.5784 17.25C53.5784 18.6904 54.1594 19.4106 55.3215 19.4106C56.4299 19.4106 56.9841 18.6709 56.9841 17.1914C56.9841 15.79 56.425 15.0894 55.3069 15.0894ZM64.5982 21.1831C63.3482 21.1831 62.3643 20.834 61.6465 20.1357C60.9337 19.4326 60.5772 18.4805 60.5772 17.2793C60.5772 16.0391 60.9483 15.0698 61.6905 14.3716C62.4327 13.6685 63.4361 13.3169 64.7007 13.3169C65.9459 13.3169 66.9224 13.6685 67.6304 14.3716C68.3384 15.0698 68.6924 15.9951 68.6924 17.1475C68.6924 18.3926 68.3262 19.3765 67.5938 20.0991C66.8663 20.8218 65.8677 21.1831 64.5982 21.1831ZM64.6568 15.0894C64.1099 15.0894 63.6851 15.2773 63.3824 15.6533C63.0797 16.0293 62.9283 16.5615 62.9283 17.25C62.9283 18.6904 63.5093 19.4106 64.6714 19.4106C65.7798 19.4106 66.334 18.6709 66.334 17.1914C66.334 15.79 65.775 15.0894 64.6568 15.0894ZM77.7274 20.1431C77.7274 21.5347 77.3246 22.6113 76.5189 23.373C75.7133 24.1396 74.5463 24.5229 73.018 24.5229C72.0072 24.5229 71.2064 24.3789 70.6156 24.0908V22.1426C71.3871 22.5918 72.1659 22.8164 72.952 22.8164C73.7333 22.8164 74.3388 22.6089 74.7684 22.1938C75.1981 21.7837 75.413 21.2246 75.413 20.5166V19.9233H75.3837C74.8563 20.7632 74.0775 21.1831 73.0472 21.1831C72.0902 21.1831 71.3309 20.8462 70.7694 20.1724C70.2079 19.4985 69.9271 18.5952 69.9271 17.4624C69.9271 16.1929 70.2396 15.1846 70.8646 14.4375C71.4896 13.6904 72.3124 13.3169 73.3329 13.3169C74.246 13.3169 74.9296 13.6685 75.3837 14.3716H75.413V13.5H77.7274V20.1431ZM75.4423 17.3965V16.8032C75.4423 16.3296 75.3007 15.9268 75.0175 15.5947C74.7391 15.2578 74.3754 15.0894 73.9262 15.0894C73.4135 15.0894 73.0106 15.2896 72.7177 15.6899C72.4247 16.0903 72.2782 16.6543 72.2782 17.3818C72.2782 18.0068 72.4174 18.5024 72.6957 18.8687C72.974 19.23 73.3549 19.4106 73.8383 19.4106C74.3168 19.4106 74.7025 19.2275 74.9955 18.8613C75.2933 18.4902 75.4423 18.002 75.4423 17.3965ZM82.1555 21H79.841V9.89648H82.1555V21ZM91.022 17.9092H86.1294C86.2075 18.998 86.8936 19.5425 88.1875 19.5425C89.0127 19.5425 89.7378 19.3472 90.3628 18.9565V20.6265C89.6695 20.9976 88.7686 21.1831 87.6602 21.1831C86.4492 21.1831 85.5093 20.8486 84.8404 20.1797C84.1714 19.5059 83.8369 18.5684 83.8369 17.3672C83.8369 16.1221 84.1983 15.1357 84.9209 14.4082C85.6436 13.6807 86.5322 13.3169 87.5869 13.3169C88.6807 13.3169 89.5254 13.6416 90.1211 14.291C90.7217 14.9404 91.022 15.8218 91.022 16.9351V17.9092ZM88.876 16.4883C88.876 15.4141 88.4414 14.877 87.5723 14.877C87.2012 14.877 86.8789 15.0308 86.6055 15.3384C86.3369 15.646 86.1734 16.0293 86.1148 16.4883H88.876ZM96.6481 20.5972V18.2534C97.0729 18.6099 97.5343 18.8784 98.0324 19.0591C98.5304 19.2349 99.0334 19.3228 99.5412 19.3228C99.839 19.3228 100.098 19.2959 100.318 19.2422C100.542 19.1885 100.728 19.1152 100.874 19.0225C101.026 18.9248 101.138 18.8125 101.211 18.6855C101.284 18.5537 101.321 18.4121 101.321 18.2607C101.321 18.0557 101.262 17.8726 101.145 17.7114C101.028 17.5503 100.867 17.4014 100.662 17.2646C100.462 17.1279 100.222 16.9961 99.944 16.8691C99.6657 16.7422 99.3654 16.6128 99.0431 16.481C98.2228 16.1392 97.61 15.7217 97.2047 15.2285C96.8044 14.7354 96.6042 14.1396 96.6042 13.4414C96.6042 12.8945 96.714 12.4258 96.9338 12.0352C97.1535 11.6396 97.4513 11.3149 97.8273 11.061C98.2082 10.8071 98.6476 10.6216 99.1457 10.5044C99.6437 10.3823 100.171 10.3213 100.728 10.3213C101.275 10.3213 101.758 10.3555 102.178 10.4238C102.603 10.4873 102.993 10.5874 103.35 10.7241V12.9141C103.174 12.792 102.981 12.6846 102.771 12.5918C102.566 12.499 102.354 12.4233 102.134 12.3647C101.914 12.3013 101.694 12.2549 101.475 12.2256C101.26 12.1963 101.055 12.1816 100.86 12.1816C100.591 12.1816 100.347 12.2085 100.127 12.2622C99.9074 12.311 99.7218 12.3818 99.5705 12.4746C99.4191 12.5674 99.3019 12.6797 99.2189 12.8115C99.1359 12.9385 99.0944 13.0825 99.0944 13.2437C99.0944 13.4194 99.1408 13.5781 99.2336 13.7197C99.3263 13.8564 99.4582 13.9883 99.6291 14.1152C99.8 14.2373 100.007 14.3594 100.252 14.4814C100.496 14.5986 100.772 14.7207 101.079 14.8477C101.499 15.0234 101.875 15.2114 102.207 15.4116C102.544 15.6069 102.832 15.8291 103.071 16.0781C103.311 16.3271 103.494 16.6128 103.621 16.9351C103.748 17.2524 103.811 17.6235 103.811 18.0483C103.811 18.6343 103.699 19.1274 103.474 19.5278C103.255 19.9233 102.954 20.2456 102.573 20.4946C102.193 20.7388 101.748 20.9146 101.24 21.022C100.737 21.1294 100.205 21.1831 99.6437 21.1831C99.0675 21.1831 98.5182 21.1343 97.9958 21.0366C97.4782 20.939 97.029 20.7925 96.6481 20.5972ZM111.176 20.729C110.654 21.0317 109.899 21.1831 108.913 21.1831C107.761 21.1831 106.828 20.834 106.115 20.1357C105.402 19.4375 105.046 18.5366 105.046 17.4331C105.046 16.1587 105.427 15.1553 106.188 14.4229C106.955 13.6855 107.978 13.3169 109.257 13.3169C110.141 13.3169 110.781 13.4341 111.176 13.6685V15.6313C110.693 15.27 110.153 15.0894 109.558 15.0894C108.894 15.0894 108.366 15.2847 107.976 15.6753C107.59 16.061 107.397 16.5957 107.397 17.2793C107.397 17.9434 107.583 18.4658 107.954 18.8467C108.325 19.2227 108.835 19.4106 109.484 19.4106C110.061 19.4106 110.624 19.23 111.176 18.8687V20.729ZM120.079 21H117.772V16.7373C117.772 15.6387 117.372 15.0894 116.571 15.0894C116.161 15.0894 115.829 15.2432 115.575 15.5508C115.321 15.8584 115.194 16.249 115.194 16.7227V21H112.88V9.89648H115.194V14.6133H115.223C115.79 13.749 116.559 13.3169 117.531 13.3169C119.23 13.3169 120.079 14.3423 120.079 16.3931V21ZM125.672 21.1831C124.422 21.1831 123.438 20.834 122.72 20.1357C122.007 19.4326 121.651 18.4805 121.651 17.2793C121.651 16.0391 122.022 15.0698 122.764 14.3716C123.506 13.6685 124.51 13.3169 125.775 13.3169C127.02 13.3169 127.996 13.6685 128.704 14.3716C129.412 15.0698 129.766 15.9951 129.766 17.1475C129.766 18.3926 129.4 19.3765 128.668 20.0991C127.94 20.8218 126.942 21.1831 125.672 21.1831ZM125.731 15.0894C125.184 15.0894 124.759 15.2773 124.456 15.6533C124.153 16.0293 124.002 16.5615 124.002 17.25C124.002 18.6904 124.583 19.4106 125.745 19.4106C126.854 19.4106 127.408 18.6709 127.408 17.1914C127.408 15.79 126.849 15.0894 125.731 15.0894ZM133.762 21H131.448V9.89648H133.762V21ZM142.131 21H139.941V19.9233H139.911C139.408 20.7632 138.664 21.1831 137.678 21.1831C136.95 21.1831 136.376 20.978 135.956 20.5679C135.541 20.1528 135.334 19.6011 135.334 18.9126C135.334 17.4575 136.196 16.6177 137.919 16.3931L139.955 16.1221C139.955 15.3018 139.511 14.8916 138.622 14.8916C137.729 14.8916 136.879 15.1577 136.074 15.6899V13.9468C136.396 13.7808 136.835 13.6343 137.392 13.5073C137.953 13.3804 138.464 13.3169 138.923 13.3169C141.061 13.3169 142.131 14.3838 142.131 16.5176V21ZM139.955 17.9531V17.4478L138.593 17.6235C137.841 17.7212 137.465 18.0605 137.465 18.6416C137.465 18.9053 137.555 19.1226 137.736 19.2935C137.922 19.4595 138.171 19.5425 138.483 19.5425C138.918 19.5425 139.272 19.3936 139.545 19.0957C139.819 18.793 139.955 18.4121 139.955 17.9531ZM149.034 15.5874C148.756 15.436 148.431 15.3604 148.06 15.3604C147.557 15.3604 147.164 15.5459 146.881 15.917C146.598 16.2832 146.456 16.7837 146.456 17.4185V21H144.142V13.5H146.456V14.8916H146.485C146.852 13.876 147.511 13.3682 148.463 13.3682C148.707 13.3682 148.898 13.3975 149.034 13.4561V15.5874Z" fill="white"/>
<path d="M153 0H5C2.23858 0 0 2.23858 0 5V26C0 28.7614 2.23858 31 5 31H153C155.761 31 158 28.7614 158 26V5C158 2.23858 155.761 0 153 0Z" fill="url(#paint0_linear_31_13)"/>
<path d="M31 0H5C2.23858 0 0 2.23858 0 5V26C0 28.7614 2.23858 31 5 31H31V0Z" fill="url(#paint1_linear_31_13)"/>
<path d="M24.5897 6.24975V4.65411L25.7736 3.75H12.9624L5.22645 10.3285H10.3569C10.3476 10.453 10.3438 10.5656 10.3438 10.6933C10.3438 11.9147 10.7762 12.925 11.6418 13.732C12.5075 14.5405 13.5735 14.9419 14.8359 14.9419C15.1307 14.9419 15.4199 14.9203 15.7007 14.8819C15.5265 15.2628 15.4386 15.6156 15.4386 15.9449C15.4386 16.5235 15.7081 17.142 16.2453 17.7989C13.8953 17.9554 12.1687 18.3692 11.0681 19.0389C10.4373 19.4197 9.93002 19.9005 9.54728 20.4763C9.16451 21.0563 8.97361 21.6784 8.97361 22.349C8.97361 22.9144 9.09714 23.4234 9.34611 23.8761C9.59508 24.3289 9.91978 24.7006 10.3231 24.9885C10.7255 25.2796 11.1898 25.5217 11.7139 25.7191C12.237 25.915 12.7564 26.0542 13.2748 26.1329C13.7915 26.2115 14.3053 26.25 14.8145 26.25C15.6212 26.25 16.4289 26.1484 17.2431 25.9461C18.0554 25.7419 18.8172 25.4397 19.5294 25.0383C20.2397 24.6396 20.8181 24.0957 21.2617 23.4142C21.7043 22.7298 21.9262 21.9608 21.9262 21.1093C21.9262 20.4639 21.7915 19.8766 21.5219 19.3433C21.2542 18.8117 20.9266 18.3741 20.5364 18.034C20.1471 17.6935 19.7578 17.3804 19.3676 17.0984C18.9782 16.8145 18.6488 16.5271 18.3811 16.2305C18.1125 15.9348 17.9778 15.6414 17.9778 15.3525C17.9778 15.0642 18.0817 14.7858 18.2902 14.5166C18.4971 14.2466 18.7498 13.9865 19.0455 13.737C19.3412 13.488 19.6369 13.2115 19.9317 12.9089C20.2265 12.6073 20.4792 12.2159 20.687 11.7365C20.8957 11.2573 20.9986 10.7144 20.9986 10.1102C20.9986 9.32193 20.8461 8.67693 20.5466 8.15821C20.511 8.0983 20.4737 8.05254 20.4343 7.98113L23.8428 5.24643V6.24947C23.3999 6.30394 23.446 6.5627 23.446 6.87263V14.4117C23.446 14.7608 23.738 15.0465 24.0949 15.0465H24.3338C24.6907 15.0465 24.9827 14.7609 24.9827 14.4117V6.87263C24.9827 6.56345 25.0293 6.30497 24.5897 6.24975H24.5897ZM18.1593 19.2856C18.2276 19.3296 18.3811 19.4485 18.6216 19.6394C18.8641 19.8295 19.0287 19.9732 19.1167 20.0739C19.2028 20.1713 19.3311 20.3179 19.4986 20.5161C19.667 20.7138 19.7812 20.8855 19.8411 21.0279C19.901 21.173 19.9618 21.3478 20.0236 21.552C20.0826 21.7539 20.1125 21.9608 20.1125 22.1709C20.1125 23.1698 19.7194 23.9099 18.9352 24.3892C18.1491 24.8685 17.2122 25.1083 16.1238 25.1083C15.5735 25.1083 15.0335 25.0443 14.5029 24.9211C13.9732 24.7971 13.466 24.6085 12.9821 24.3585C12.4982 24.109 12.109 23.7607 11.8141 23.3157C11.5184 22.8681 11.3705 22.3539 11.3705 21.7777C11.3705 21.173 11.538 20.6474 11.8749 20.2012C12.21 19.7543 12.6499 19.4165 13.1946 19.1866C13.7374 18.9554 14.2876 18.7915 14.8454 18.6945C15.4032 18.5948 15.9713 18.5448 16.5487 18.5448C16.8164 18.5448 17.0241 18.5595 17.1719 18.5856C17.1992 18.5984 17.3535 18.7069 17.6352 18.9116C17.917 19.1144 18.092 19.2394 18.1593 19.2856H18.1593ZM17.9582 13.3924C17.5145 13.9115 16.8959 14.171 16.1042 14.171C15.3938 14.171 14.7686 13.8918 14.2315 13.3324C13.6924 12.7744 13.3077 12.1413 13.0729 11.4322C12.837 10.7227 12.7191 10.0268 12.7191 9.34341C12.7191 8.54102 12.9345 7.85795 13.3648 7.29404C13.7953 6.72864 14.413 6.44532 15.2179 6.44532C15.9292 6.44532 16.558 6.74053 17.1008 7.33341C17.6456 7.92432 18.0358 8.58808 18.2698 9.32372C18.5047 10.0584 18.6216 10.761 18.6216 11.4322C18.6216 12.22 18.3999 12.8741 17.9582 13.3924H17.9582Z" fill="white"/>
<defs>
<linearGradient id="paint0_linear_31_13" x1="0" y1="0" x2="0" y2="31" gradientUnits="userSpaceOnUse">
<stop stop-color="#BBBBBB" stop-opacity="0.1"/>
<stop offset="1" stop-opacity="0.1"/>
</linearGradient>
<linearGradient id="paint1_linear_31_13" x1="5.7742e-08" y1="15.5" x2="31" y2="15.5" gradientUnits="userSpaceOnUse">
<stop stop-color="#7AA6CC"/>
<stop offset="1" stop-color="#3169AA"/>
</linearGradient>
</defs>
</svg>
