<svg width="96" height="32" viewBox="0 0 96 32" fill="none" xmlns="http://www.w3.org/2000/svg">
<path d="M91 0H31V32H91C93.7614 32 96 29.7614 96 27V5C96 2.23858 93.7614 0 91 0Z" fill="#0F1418"/>
<path d="M31 0H5C2.23858 0 0 2.23858 0 5V27C0 29.7614 2.23858 32 5 32H31V0Z" fill="#0380A8"/>
<path d="M10.0247 25.0763C7.64575 20.2547 6.23039 17.3428 6.23039 17.2706C6.23039 17.1526 6.37576 17.169 7.80507 17.4462C10.3189 17.9344 11.662 18.0722 13.9008 18.073C16.863 18.0738 19.2751 17.6098 21.1492 16.6773C22.1406 16.184 22.7369 15.7466 23.2252 15.1542C23.8267 14.4241 24.0199 13.9213 24.0269 13.0749C24.0329 12.2699 23.9232 11.8454 23.4523 10.8604C23.266 10.4712 23.1024 10.0244 23.0868 9.86766C23.0624 9.61537 23.0833 9.57918 23.2713 9.55771C23.6822 9.50954 25.7103 11.457 26.4572 12.6168C27.7445 14.6169 27.849 16.7805 26.7592 18.8728C26.0898 20.1583 25.35 21.0476 24.1113 22.0585C22.0527 23.7374 19.6598 24.9066 16.3556 25.8486C14.5807 26.3549 11.7108 26.9688 11.1198 26.9688C10.9945 26.9688 10.7594 26.5623 10.0265 25.0755L10.0247 25.0762L10.0247 25.0763ZM10.6872 17.3006C8.37609 17.0045 6.43676 16.747 6.37669 16.728C6.27403 16.6953 5.9067 15.4831 5.6995 14.4964C5.64729 14.2467 5.57068 13.5854 5.52891 13.0258C5.34253 10.5289 5.89182 8.80259 7.36373 7.25025C9.85586 4.62425 15.1917 4.30477 21.2118 6.42111C22.2685 6.79304 22.6881 7.05135 22.494 7.21231C22.3504 7.33113 21.3772 7.32941 19.6955 7.20711C17.0667 7.01598 15.0656 7.3776 14.0341 8.23168C12.4638 9.53176 12.7032 12.3817 14.7288 16.4929C14.9482 16.938 15.1692 17.3737 15.2197 17.4623C15.3373 17.6664 15.252 17.8558 15.0474 17.8463C14.9602 17.8422 12.9982 17.5969 10.6872 17.3007V17.3006ZM18.4402 15.0638C16.5957 14.7358 14.9375 13.6044 14.4022 12.3104C14.1454 11.6888 14.1576 10.8777 14.4317 10.3922C14.6799 9.95303 15.3205 9.44509 15.8941 9.23239C16.849 8.87855 18.5212 9.01969 19.7398 9.55788C20.8966 10.0685 21.9221 10.9665 22.3033 11.8016C22.7925 12.8735 22.3851 14.0695 21.337 14.6403C20.6424 15.0183 19.2923 15.2155 18.4393 15.0639H18.4402L18.4402 15.0638Z" fill="white"/>
<path d="M49.4562 22H43.2014V11.4971H45.5671V20.0811H49.4562V22ZM57.0703 22H54.8804V20.9233H54.8511C54.3482 21.7632 53.6035 22.1831 52.6172 22.1831C51.8897 22.1831 51.3159 21.978 50.896 21.5679C50.481 21.1528 50.2735 20.6011 50.2735 19.9126C50.2735 18.4575 51.1353 17.6177 52.8589 17.3931L54.895 17.1221C54.895 16.3018 54.4507 15.8916 53.562 15.8916C52.6685 15.8916 51.8189 16.1577 51.0132 16.6899V14.9468C51.3355 14.7808 51.7749 14.6343 52.3316 14.5073C52.8931 14.3804 53.4033 14.3169 53.8623 14.3169C56.001 14.3169 57.0703 15.3838 57.0703 17.5176V22ZM54.895 18.9531V18.4478L53.5327 18.6235C52.7808 18.7212 52.4048 19.0605 52.4048 19.6416C52.4048 19.9053 52.4951 20.1226 52.6758 20.2935C52.8613 20.4595 53.1104 20.5425 53.4229 20.5425C53.8574 20.5425 54.2114 20.3936 54.4849 20.0957C54.7583 19.793 54.895 19.4121 54.895 18.9531ZM63.6151 21.9121C63.2733 22.0928 62.7581 22.1831 62.0697 22.1831C60.4388 22.1831 59.6234 21.3359 59.6234 19.6416V16.2065H58.4076V14.5H59.6234V12.8813L61.9305 12.2222V14.5H63.6151V16.2065H61.9305V19.2388C61.9305 20.02 62.2406 20.4106 62.8607 20.4106C63.1048 20.4106 63.3563 20.3398 63.6151 20.1982V21.9121ZM69.6398 21.9121C69.298 22.0928 68.7829 22.1831 68.0944 22.1831C66.4635 22.1831 65.6481 21.3359 65.6481 19.6416V16.2065H64.4323V14.5H65.6481V12.8813L67.9552 12.2222V14.5H69.6398V16.2065H67.9552V19.2388C67.9552 20.02 68.2653 20.4106 68.8854 20.4106C69.1296 20.4106 69.381 20.3398 69.6398 20.1982V21.9121ZM77.8105 18.9092H72.9179C72.9961 19.998 73.6821 20.5425 74.9761 20.5425C75.8012 20.5425 76.5263 20.3472 77.1513 19.9565V21.6265C76.458 21.9976 75.5571 22.1831 74.4487 22.1831C73.2378 22.1831 72.2978 21.8486 71.6289 21.1797C70.9599 20.5059 70.6255 19.5684 70.6255 18.3672C70.6255 17.1221 70.9868 16.1357 71.7094 15.4082C72.4321 14.6807 73.3208 14.3169 74.3755 14.3169C75.4692 14.3169 76.3139 14.6416 76.9096 15.291C77.5102 15.9404 77.8105 16.8218 77.8105 17.9351V18.9092ZM75.6645 17.4883C75.6645 16.4141 75.23 15.877 74.3608 15.877C73.9897 15.877 73.6675 16.0308 73.394 16.3384C73.1255 16.646 72.9619 17.0293 72.9033 17.4883H75.6645ZM78.8768 21.8022V19.9272C79.2576 20.1567 79.636 20.3276 80.012 20.4399C80.3929 20.5522 80.7518 20.6084 81.0887 20.6084C81.4988 20.6084 81.8211 20.5522 82.0555 20.4399C82.2947 20.3276 82.4144 20.1567 82.4144 19.9272C82.4144 19.7808 82.3606 19.6587 82.2532 19.561C82.1458 19.4634 82.0066 19.3779 81.8357 19.3047C81.6697 19.2314 81.4866 19.1655 81.2864 19.1069C81.0862 19.0483 80.8934 18.9824 80.7078 18.9092C80.41 18.7969 80.1463 18.6772 79.9168 18.5503C79.6922 18.4185 79.5018 18.2671 79.3455 18.0962C79.1941 17.9253 79.077 17.7275 78.9939 17.5029C78.9158 17.2783 78.8768 17.0122 78.8768 16.7046C78.8768 16.2847 78.9671 15.9233 79.1478 15.6206C79.3333 15.3179 79.5774 15.0713 79.8802 14.8809C80.1878 14.6855 80.5369 14.5439 80.9275 14.4561C81.323 14.3633 81.7332 14.3169 82.158 14.3169C82.49 14.3169 82.827 14.3438 83.1688 14.3975C83.5105 14.4463 83.8475 14.5195 84.1795 14.6172V16.4043C83.8865 16.2334 83.5716 16.1064 83.2347 16.0234C82.9026 15.9355 82.5755 15.8916 82.2532 15.8916C82.1019 15.8916 81.9578 15.9062 81.8211 15.9355C81.6893 15.96 81.5721 15.999 81.4695 16.0527C81.367 16.1016 81.2864 16.1675 81.2278 16.2505C81.1692 16.3286 81.1399 16.4189 81.1399 16.5215C81.1399 16.6582 81.1839 16.7754 81.2718 16.873C81.3597 16.9707 81.4744 17.0562 81.616 17.1294C81.7576 17.1978 81.9139 17.2612 82.0848 17.3198C82.2605 17.3735 82.4339 17.4297 82.6048 17.4883C82.9124 17.5957 83.1907 17.7129 83.4397 17.8398C83.6888 17.9668 83.9012 18.1157 84.077 18.2866C84.2576 18.4575 84.3943 18.6577 84.4871 18.8872C84.5848 19.1167 84.6336 19.3901 84.6336 19.7075C84.6336 20.1519 84.5359 20.5327 84.3406 20.8501C84.1502 21.1626 83.8938 21.4189 83.5716 21.6191C83.2542 21.8145 82.8855 21.9561 82.4656 22.0439C82.0506 22.1367 81.6185 22.1831 81.1692 22.1831C80.344 22.1831 79.5799 22.0562 78.8768 21.8022Z" fill="white"/>
<path d="M91 0H5C2.23858 0 0 2.23858 0 5V27C0 29.7614 2.23857 32 5 32H91C93.7614 32 96 29.7614 96 27V5C96 2.23858 93.7614 0 91 0Z" fill="url(#paint0_linear_20_3)"/>
<defs>
<linearGradient id="paint0_linear_20_3" x1="0" y1="0" x2="0" y2="32" gradientUnits="userSpaceOnUse">
<stop stop-color="#BBBBBB" stop-opacity="0.1"/>
<stop offset="1" stop-opacity="0.1"/>
</linearGradient>
</defs>
</svg>
