<svg width="105" height="32" viewBox="0 0 105 32" fill="none" xmlns="http://www.w3.org/2000/svg">
<path d="M100 0H31V32H100C102.761 32 105 29.7614 105 27V5C105 2.23858 102.761 0 100 0Z" fill="#0F1418"/>
<path d="M31 0H5C2.23858 0 0 2.23858 0 5V27C0 29.7614 2.23858 32 5 32H31V0Z" fill="#3CC04E"/>
<path d="M20.2385 13.6499C19.9078 13.4956 19.5954 13.3921 19.2993 13.3433C19.0041 13.2925 18.5307 13.2685 17.8752 13.2685H16.1732V20.3515H17.9183C18.5988 20.3515 19.1278 20.3046 19.5053 20.2116C19.8829 20.1187 20.1973 20.0018 20.4493 19.858C20.7013 19.7152 20.9323 19.5398 21.1422 19.3299C21.814 18.6476 22.1503 17.787 22.1503 16.7463C22.1503 15.7237 21.8053 14.889 21.1144 14.2431C20.8594 14.0035 20.5662 13.8051 20.2385 13.6499V13.6499ZM16.5 5C10.1482 5 5 10.1491 5 16.5C5 22.8509 10.1482 28 16.5 28C22.8518 28 28 22.8509 28 16.5C28 10.1491 22.8518 5 16.5 5ZM12.682 21.5782H11.3192V12.0553H12.682V21.5782ZM11.9997 11.0605C11.4831 11.0605 11.0624 10.6427 11.0624 10.1233C11.0624 9.60768 11.4822 9.18697 11.9997 9.18697C12.5181 9.18697 12.9379 9.60671 12.9379 10.1233C12.9369 10.6436 12.5181 11.0605 11.9997 11.0605ZM23.193 18.6467C22.9477 19.2284 22.5979 19.7401 22.1427 20.181C21.6798 20.6371 21.1412 20.9783 20.5269 21.2102C20.1676 21.3501 19.8389 21.445 19.5389 21.4939C19.238 21.5408 18.6658 21.5638 17.8197 21.5638H14.8076V12.0553H18.018C19.3146 12.0553 20.3381 12.2479 21.0933 12.637C21.8475 13.0251 22.4465 13.5982 22.8921 14.3514C23.3378 15.1056 23.561 15.9288 23.561 16.8182C23.5621 17.4564 23.4374 18.0659 23.1931 18.6467H23.193Z" fill="white"/>
<path d="M50.1717 22.1831C48.6678 22.1831 47.4422 21.6948 46.495 20.7183C45.5477 19.7368 45.0741 18.46 45.0741 16.8877C45.0741 15.2275 45.555 13.8848 46.517 12.8594C47.4789 11.834 48.7533 11.3213 50.3402 11.3213C51.8392 11.3213 53.0502 11.812 53.973 12.7935C54.9007 13.7749 55.3646 15.0688 55.3646 16.6753C55.3646 18.3257 54.8837 19.6562 53.9217 20.667C52.9647 21.6777 51.7147 22.1831 50.1717 22.1831ZM50.2743 13.3574C49.4442 13.3574 48.785 13.6699 48.2967 14.2949C47.8085 14.915 47.5643 15.7378 47.5643 16.7632C47.5643 17.8032 47.8085 18.626 48.2967 19.2314C48.785 19.8369 49.4247 20.1396 50.2157 20.1396C51.0311 20.1396 51.6781 19.8467 52.1566 19.2607C52.6351 18.6699 52.8744 17.8521 52.8744 16.8071C52.8744 15.7183 52.6424 14.8711 52.1786 14.2656C51.7147 13.6602 51.0799 13.3574 50.2743 13.3574ZM66.1061 22H63.3888L61.7555 19.2974C61.6335 19.0923 61.5163 18.9092 61.404 18.748C61.2917 18.5869 61.1769 18.4502 61.0597 18.3379C60.9474 18.2207 60.8278 18.1328 60.7009 18.0742C60.5788 18.0107 60.4445 17.979 60.298 17.979H59.6608V22H57.2951V11.4971H61.0451C63.5939 11.4971 64.8683 12.4492 64.8683 14.3535C64.8683 14.7197 64.8122 15.0591 64.6999 15.3716C64.5876 15.6792 64.4289 15.9575 64.2238 16.2065C64.0187 16.4556 63.7697 16.6704 63.4767 16.8511C63.1887 17.0317 62.8664 17.1733 62.5099 17.2759V17.3052C62.6662 17.354 62.8176 17.4346 62.964 17.5469C63.1105 17.6543 63.2521 17.7812 63.3888 17.9277C63.5256 18.0742 63.655 18.2329 63.777 18.4038C63.904 18.5698 64.0187 18.7334 64.1213 18.8945L66.1061 22ZM59.6608 13.2695V16.1919H60.6862C61.194 16.1919 61.6017 16.0454 61.9094 15.7524C62.2219 15.4546 62.3781 15.0859 62.3781 14.6465C62.3781 13.7285 61.8288 13.2695 60.7302 13.2695H59.6608ZM74.6577 21.6265C73.8911 21.9976 72.8901 22.1831 71.6548 22.1831C70.0435 22.1831 68.7764 21.7095 67.8535 20.7622C66.9307 19.8149 66.4692 18.5527 66.4692 16.9756C66.4692 15.2959 66.9868 13.9336 68.022 12.8887C69.062 11.8438 70.4097 11.3213 72.0649 11.3213C73.0903 11.3213 73.9546 11.4507 74.6577 11.7095V13.9873C73.9546 13.5674 73.1538 13.3574 72.2554 13.3574C71.269 13.3574 70.4731 13.6675 69.8677 14.2876C69.2622 14.9077 68.9595 15.7476 68.9595 16.8071C68.9595 17.8228 69.2451 18.6333 69.8164 19.2388C70.3877 19.8394 71.1567 20.1396 72.1235 20.1396C73.0464 20.1396 73.8911 19.915 74.6577 19.4658V21.6265ZM79.9134 11.4971V13.3281H79.0345V20.1689H79.9134V22H75.7899V20.1689H76.6688V13.3281H75.7899V11.4971H79.9134ZM81.6095 22V11.4971H85.3302C89.0607 11.4971 90.9259 13.2036 90.9259 16.6167C90.9259 18.2524 90.4157 19.5586 89.3952 20.5352C88.3795 21.5117 87.0246 22 85.3302 22H81.6095ZM83.9752 13.4233V20.0811H85.1471C86.1725 20.0811 86.9757 19.7734 87.5568 19.1582C88.1427 18.543 88.4357 17.7056 88.4357 16.646C88.4357 15.645 88.1452 14.8589 87.5641 14.2876C86.9879 13.7114 86.1774 13.4233 85.1325 13.4233H83.9752Z" fill="white"/>
<path d="M100 0H5C2.23858 0 0 2.23858 0 5V27C0 29.7614 2.23858 32 5 32H100C102.761 32 105 29.7614 105 27V5C105 2.23858 102.761 0 100 0Z" fill="url(#paint0_linear_22_9)"/>
<defs>
<linearGradient id="paint0_linear_22_9" x1="0" y1="0" x2="0" y2="32" gradientUnits="userSpaceOnUse">
<stop stop-color="#BBBBBB" stop-opacity="0.1"/>
<stop offset="1" stop-opacity="0.1"/>
</linearGradient>
</defs>
</svg>
