<svg width="150" height="31" viewBox="0 0 150 31" fill="none" xmlns="http://www.w3.org/2000/svg">
<path d="M145 0H31V31H145C147.761 31 150 28.7614 150 26V5C150 2.23858 147.761 0 145 0Z" fill="#0F1418"/>
<path d="M49.796 21H47.0787L45.4454 18.2974C45.3233 18.0923 45.2061 17.9092 45.0938 17.748C44.9815 17.5869 44.8668 17.4502 44.7496 17.3379C44.6373 17.2207 44.5177 17.1328 44.3907 17.0742C44.2686 17.0107 44.1344 16.979 43.9879 16.979H43.3507V21H40.9849V10.4971H44.7349C47.2838 10.4971 48.5582 11.4492 48.5582 13.3535C48.5582 13.7197 48.502 14.0591 48.3897 14.3716C48.2774 14.6792 48.1187 14.9575 47.9137 15.2065C47.7086 15.4556 47.4595 15.6704 47.1666 15.8511C46.8785 16.0317 46.5562 16.1733 46.1998 16.2759V16.3052C46.356 16.354 46.5074 16.4346 46.6539 16.5469C46.8004 16.6543 46.942 16.7812 47.0787 16.9277C47.2154 17.0742 47.3448 17.2329 47.4669 17.4038C47.5938 17.5698 47.7086 17.7334 47.8111 17.8945L49.796 21ZM43.3507 12.2695V15.1919H44.3761C44.8839 15.1919 45.2916 15.0454 45.5992 14.7524C45.9117 14.4546 46.0679 14.0859 46.0679 13.6465C46.0679 12.7285 45.5186 12.2695 44.42 12.2695H43.3507ZM57.0951 17.9092H52.2025C52.2807 18.998 52.9667 19.5425 54.2606 19.5425C55.0858 19.5425 55.8109 19.3472 56.4359 18.9565V20.6265C55.7426 20.9976 54.8417 21.1831 53.7333 21.1831C52.5224 21.1831 51.5824 20.8486 50.9135 20.1797C50.2445 19.5059 49.9101 18.5684 49.9101 17.3672C49.9101 16.1221 50.2714 15.1357 50.994 14.4082C51.7167 13.6807 52.6054 13.3169 53.6601 13.3169C54.7538 13.3169 55.5985 13.6416 56.1942 14.291C56.7948 14.9404 57.0951 15.8218 57.0951 16.9351V17.9092ZM54.9491 16.4883C54.9491 15.4141 54.5145 14.877 53.6454 14.877C53.2743 14.877 52.952 15.0308 52.6786 15.3384C52.4101 15.646 52.2465 16.0293 52.1879 16.4883H54.9491ZM58.1613 20.8022V18.9272C58.5422 19.1567 58.9206 19.3276 59.2966 19.4399C59.6775 19.5522 60.0363 19.6084 60.3733 19.6084C60.7834 19.6084 61.1057 19.5522 61.3401 19.4399C61.5793 19.3276 61.6989 19.1567 61.6989 18.9272C61.6989 18.7808 61.6452 18.6587 61.5378 18.561C61.4304 18.4634 61.2912 18.3779 61.1203 18.3047C60.9543 18.2314 60.7712 18.1655 60.571 18.1069C60.3708 18.0483 60.1779 17.9824 59.9924 17.9092C59.6945 17.7969 59.4309 17.6772 59.2014 17.5503C58.9768 17.4185 58.7863 17.2671 58.6301 17.0962C58.4787 16.9253 58.3615 16.7275 58.2785 16.5029C58.2004 16.2783 58.1613 16.0122 58.1613 15.7046C58.1613 15.2847 58.2517 14.9233 58.4323 14.6206C58.6179 14.3179 58.862 14.0713 59.1648 13.8809C59.4724 13.6855 59.8215 13.5439 60.2121 13.4561C60.6076 13.3633 61.0178 13.3169 61.4426 13.3169C61.7746 13.3169 62.1115 13.3438 62.4533 13.3975C62.7951 13.4463 63.132 13.5195 63.4641 13.6172V15.4043C63.1711 15.2334 62.8562 15.1064 62.5193 15.0234C62.1872 14.9355 61.8601 14.8916 61.5378 14.8916C61.3864 14.8916 61.2424 14.9062 61.1057 14.9355C60.9738 14.96 60.8567 14.999 60.7541 15.0527C60.6516 15.1016 60.571 15.1675 60.5124 15.2505C60.4538 15.3286 60.4245 15.4189 60.4245 15.5215C60.4245 15.6582 60.4685 15.7754 60.5564 15.873C60.6443 15.9707 60.759 16.0562 60.9006 16.1294C61.0422 16.1978 61.1985 16.2612 61.3694 16.3198C61.5451 16.3735 61.7185 16.4297 61.8894 16.4883C62.197 16.5957 62.4753 16.7129 62.7243 16.8398C62.9734 16.9668 63.1858 17.1157 63.3615 17.2866C63.5422 17.4575 63.6789 17.6577 63.7717 17.8872C63.8694 18.1167 63.9182 18.3901 63.9182 18.7075C63.9182 19.1519 63.8205 19.5327 63.6252 19.8501C63.4348 20.1626 63.1784 20.4189 62.8562 20.6191C62.5388 20.8145 62.1701 20.9561 61.7502 21.0439C61.3352 21.1367 60.903 21.1831 60.4538 21.1831C59.6286 21.1831 58.8645 21.0562 58.1613 20.8022ZM72.1768 17.9092H67.2842C67.3623 18.998 68.0484 19.5425 69.3423 19.5425C70.1675 19.5425 70.8926 19.3472 71.5176 18.9565V20.6265C70.8243 20.9976 69.9234 21.1831 68.815 21.1831C67.604 21.1831 66.6641 20.8486 65.9952 20.1797C65.3262 19.5059 64.9917 18.5684 64.9917 17.3672C64.9917 16.1221 65.3531 15.1357 66.0757 14.4082C66.7984 13.6807 67.687 13.3169 68.7417 13.3169C69.8355 13.3169 70.6802 13.6416 71.2759 14.291C71.8765 14.9404 72.1768 15.8218 72.1768 16.9351V17.9092ZM70.0308 16.4883C70.0308 15.4141 69.5962 14.877 68.7271 14.877C68.356 14.877 68.0337 15.0308 67.7603 15.3384C67.4917 15.646 67.3282 16.0293 67.2696 16.4883H70.0308ZM79.974 21H77.784V19.9233H77.7547C77.2518 20.7632 76.5072 21.1831 75.5209 21.1831C74.7933 21.1831 74.2196 20.978 73.7997 20.5679C73.3846 20.1528 73.1771 19.6011 73.1771 18.9126C73.1771 17.4575 74.0389 16.6177 75.7626 16.3931L77.7987 16.1221C77.7987 15.3018 77.3544 14.8916 76.4657 14.8916C75.5721 14.8916 74.7225 15.1577 73.9169 15.6899V13.9468C74.2391 13.7808 74.6786 13.6343 75.2352 13.5073C75.7967 13.3804 76.307 13.3169 76.766 13.3169C78.9046 13.3169 79.974 14.3838 79.974 16.5176V21ZM77.7987 17.9531V17.4478L76.4364 17.6235C75.6844 17.7212 75.3085 18.0605 75.3085 18.6416C75.3085 18.9053 75.3988 19.1226 75.5795 19.2935C75.765 19.4595 76.014 19.5425 76.3265 19.5425C76.7611 19.5425 77.1151 19.3936 77.3885 19.0957C77.662 18.793 77.7987 18.4121 77.7987 17.9531ZM86.8776 15.5874C86.5993 15.436 86.2746 15.3604 85.9035 15.3604C85.4006 15.3604 85.0075 15.5459 84.7243 15.917C84.4411 16.2832 84.2995 16.7837 84.2995 17.4185V21H81.985V13.5H84.2995V14.8916H84.3288C84.695 13.876 85.3542 13.3682 86.3063 13.3682C86.5505 13.3682 86.7409 13.3975 86.8776 13.4561V15.5874ZM93.7666 20.729C93.2441 21.0317 92.4897 21.1831 91.5034 21.1831C90.3511 21.1831 89.4185 20.834 88.7056 20.1357C87.9927 19.4375 87.6362 18.5366 87.6362 17.4331C87.6362 16.1587 88.0171 15.1553 88.7788 14.4229C89.5454 13.6855 90.5684 13.3169 91.8477 13.3169C92.7314 13.3169 93.3711 13.4341 93.7666 13.6685V15.6313C93.2832 15.27 92.7437 15.0894 92.1479 15.0894C91.4839 15.0894 90.9565 15.2847 90.5659 15.6753C90.1802 16.061 89.9873 16.5957 89.9873 17.2793C89.9873 17.9434 90.1729 18.4658 90.5439 18.8467C90.915 19.2227 91.4253 19.4106 92.0747 19.4106C92.6509 19.4106 93.2148 19.23 93.7666 18.8687V20.729ZM102.67 21H100.363V16.7373C100.363 15.6387 99.9622 15.0894 99.1614 15.0894C98.7513 15.0894 98.4193 15.2432 98.1653 15.5508C97.9114 15.8584 97.7845 16.249 97.7845 16.7227V21H95.47V9.89648H97.7845V14.6133H97.8138C98.3802 13.749 99.1492 13.3169 100.121 13.3169C101.82 13.3169 102.67 14.3423 102.67 16.3931V21ZM117.861 20.2969C116.836 20.8877 115.561 21.1831 114.038 21.1831C112.349 21.1831 111.016 20.7168 110.039 19.7842C109.067 18.8467 108.582 17.5576 108.582 15.917C108.582 14.2666 109.114 12.9214 110.178 11.8813C111.243 10.8413 112.659 10.3213 114.426 10.3213C115.54 10.3213 116.521 10.4751 117.371 10.7827V13.002C116.56 12.5332 115.569 12.2988 114.397 12.2988C113.415 12.2988 112.615 12.6187 111.995 13.2583C111.379 13.8931 111.072 14.7427 111.072 15.8071C111.072 16.8862 111.348 17.7212 111.899 18.312C112.456 18.9028 113.206 19.1982 114.148 19.1982C114.714 19.1982 115.164 19.1177 115.496 18.9565V16.9058H113.394V15.0161H117.861V20.2969ZM126.098 21H123.908V19.9233H123.879C123.376 20.7632 122.631 21.1831 121.645 21.1831C120.917 21.1831 120.344 20.978 119.924 20.5679C119.509 20.1528 119.301 19.6011 119.301 18.9126C119.301 17.4575 120.163 16.6177 121.887 16.3931L123.923 16.1221C123.923 15.3018 123.478 14.8916 122.59 14.8916C121.696 14.8916 120.846 15.1577 120.041 15.6899V13.9468C120.363 13.7808 120.803 13.6343 121.359 13.5073C121.921 13.3804 122.431 13.3169 122.89 13.3169C125.029 13.3169 126.098 14.3838 126.098 16.5176V21ZM123.923 17.9531V17.4478L122.56 17.6235C121.808 17.7212 121.432 18.0605 121.432 18.6416C121.432 18.9053 121.523 19.1226 121.703 19.2935C121.889 19.4595 122.138 19.5425 122.45 19.5425C122.885 19.5425 123.239 19.3936 123.512 19.0957C123.786 18.793 123.923 18.4121 123.923 17.9531ZM132.643 20.9121C132.301 21.0928 131.786 21.1831 131.097 21.1831C129.466 21.1831 128.651 20.3359 128.651 18.6416V15.2065H127.435V13.5H128.651V11.8813L130.958 11.2222V13.5H132.643V15.2065H130.958V18.2388C130.958 19.02 131.268 19.4106 131.888 19.4106C132.132 19.4106 132.384 19.3398 132.643 19.1982V20.9121ZM140.813 17.9092H135.921C135.999 18.998 136.685 19.5425 137.979 19.5425C138.804 19.5425 139.529 19.3472 140.154 18.9565V20.6265C139.461 20.9976 138.56 21.1831 137.452 21.1831C136.241 21.1831 135.301 20.8486 134.632 20.1797C133.963 19.5059 133.628 18.5684 133.628 17.3672C133.628 16.1221 133.99 15.1357 134.712 14.4082C135.435 13.6807 136.324 13.3169 137.378 13.3169C138.472 13.3169 139.317 13.6416 139.913 14.291C140.513 14.9404 140.813 15.8218 140.813 16.9351V17.9092ZM138.667 16.4883C138.667 15.4141 138.233 14.877 137.364 14.877C136.993 14.877 136.67 15.0308 136.397 15.3384C136.128 15.646 135.965 16.0293 135.906 16.4883H138.667Z" fill="white"/>
<path d="M145 0H5C2.23858 0 0 2.23858 0 5V26C0 28.7614 2.23858 31 5 31H145C147.761 31 150 28.7614 150 26V5C150 2.23858 147.761 0 145 0Z" fill="url(#paint0_linear_31_24)"/>
<path d="M31 0H5C2.23858 0 0 2.23858 0 5V26C0 28.7614 2.23858 31 5 31H31V0Z" fill="#1FBFB1"/>
<path d="M18.2912 24.7093C17.0291 23.3788 15.3401 21.2419 13.9351 18.8262C16.256 18.3003 17.9747 16.1893 17.9747 14.0803C17.9747 10.9714 15.4821 9.52854 12.2145 9.52854C10.5256 9.52854 9.17803 9.61121 7.91978 9.61121C6.77171 9.61121 5.62463 9.61121 4.91014 9.58428V10.3898L5.99771 10.5831C6.74577 10.7225 7.17162 11.0533 7.17162 12.7758V23.7105C7.17162 25.4322 6.74579 25.7648 5.99771 25.9023L4.91014 26.0992V26.902C5.68314 26.8751 7.0297 26.8202 8.37724 26.8202C9.66624 26.8202 11.3283 26.8751 12.0448 26.902V26.0992L10.5543 25.9023C9.78142 25.7935 9.37847 25.4322 9.37847 23.7105V19.0761C10.0661 19.1319 10.6675 19.1319 11.5863 19.1319C13.3338 22.1561 14.9958 24.4333 15.9396 25.487C16.8008 26.4876 18.1177 27.125 19.7797 27.125C20.266 27.125 20.7811 27.0422 21.0956 26.902V26.1819C20.0646 26.1819 19.0336 25.487 18.2912 24.7093L18.2912 24.7093ZM11.4415 17.8822C10.4671 17.8822 10.0394 17.8571 9.3785 17.7967V10.833C10.0394 10.7773 10.9255 10.7773 11.6995 10.7773C14.1077 10.7773 15.5387 12 15.5387 14.2187C15.5387 16.4114 13.9927 17.8822 11.4415 17.8822ZM20.1874 10.8767C20.1586 10.7308 20.1327 10.5608 20.1097 10.3647C20.0857 10.1668 20.0703 9.9346 20.0608 9.66051C20.0512 9.38831 20.0473 9.05571 20.0473 8.67475C20.0473 8.29191 20.0512 7.96394 20.0608 7.69081C20.0703 7.41671 20.0857 7.18161 20.1097 6.98562C20.1327 6.79048 20.1586 6.61951 20.1874 6.47367C20.2152 6.32687 20.2516 6.18748 20.2987 6.05095C20.5451 5.32903 20.9489 4.78644 21.5138 4.42215C22.0777 4.05794 22.7692 3.875 23.5902 3.875C24.0122 3.875 24.3949 3.92237 24.7344 4.01894C25.0701 4.11465 25.3712 4.24662 25.6368 4.41567C25.8987 4.58292 26.125 4.77988 26.312 5.00288C26.5038 5.22674 26.6582 5.46556 26.7791 5.72204C26.826 5.80375 26.8127 5.86884 26.7379 5.91432L25.6953 6.3296C25.607 6.37517 25.5448 6.35194 25.4958 6.26175C25.2619 5.84179 25.0623 5.5659 24.7344 5.36525C24.4025 5.16545 24.0956 5.07068 23.5901 5.07068C23.0406 5.07068 22.795 5.17656 22.4508 5.41538C22.1093 5.64951 21.859 5.94408 21.7113 6.39276C21.6816 6.47364 21.6547 6.57401 21.6231 6.69199C21.5972 6.81186 21.576 6.95867 21.5627 7.1305C21.5492 7.3024 21.5368 7.51515 21.5253 7.76604C21.5176 8.01693 21.5138 8.32167 21.5138 8.67472C21.5138 9.02959 21.5176 9.33433 21.5253 9.58522C21.5368 9.83515 21.5492 10.0479 21.5627 10.2198C21.576 10.3935 21.5972 10.5394 21.6231 10.6602C21.6547 10.7764 21.6816 10.8767 21.7113 10.9585C21.859 11.4054 22.0701 11.6497 22.3808 11.8458C22.6877 12.0446 23.0406 12.1877 23.5901 12.1877C24.0783 12.1877 24.5253 12.053 24.8168 11.8476C25.1055 11.6423 25.3452 11.371 25.4527 11.0003C25.4997 10.8441 25.5601 10.6499 25.6014 10.4121C25.6388 10.1743 25.6388 9.92251 25.6388 9.57505C25.6388 9.52016 25.6071 9.49227 25.5543 9.49227H23.8846C23.7906 9.49227 23.7445 9.44773 23.7445 9.35671V8.42945C23.7445 8.33746 23.7906 8.29282 23.8846 8.29282H26.9488C27.0448 8.29282 27.0899 8.33744 27.0899 8.42945V9.22197C27.0899 9.64193 27.0899 10.0312 27.0448 10.3917C27.0016 10.7522 26.9431 11.0644 26.8693 11.292C26.6352 12.0047 26.2641 12.512 25.6954 12.89C25.1247 13.271 24.3891 13.4763 23.5901 13.4763C22.7692 13.4763 22.0777 13.2933 21.5138 12.93C20.9489 12.5621 20.5451 12.0223 20.2986 11.3003C20.2516 11.1638 20.2151 11.0235 20.1874 10.8767H20.1874Z" fill="white"/>
<defs>
<linearGradient id="paint0_linear_31_24" x1="0" y1="0" x2="0" y2="31" gradientUnits="userSpaceOnUse">
<stop stop-color="#BBBBBB" stop-opacity="0.1"/>
<stop offset="1" stop-opacity="0.1"/>
</linearGradient>
</defs>
</svg>
