<svg width="150" height="32" viewBox="0 0 150 32" fill="none" xmlns="http://www.w3.org/2000/svg">
<path d="M145 0H31V32H145C147.761 32 150 29.7614 150 27V5C150 2.23858 147.761 0 145 0Z" fill="#0F1418"/>
<path d="M49.796 22H47.0787L45.4454 19.2974C45.3233 19.0923 45.2061 18.9092 45.0938 18.748C44.9815 18.5869 44.8668 18.4502 44.7496 18.3379C44.6373 18.2207 44.5177 18.1328 44.3907 18.0742C44.2686 18.0107 44.1344 17.979 43.9879 17.979H43.3507V22H40.9849V11.4971H44.7349C47.2838 11.4971 48.5582 12.4492 48.5582 14.3535C48.5582 14.7197 48.502 15.0591 48.3897 15.3716C48.2774 15.6792 48.1187 15.9575 47.9137 16.2065C47.7086 16.4556 47.4595 16.6704 47.1666 16.8511C46.8785 17.0317 46.5562 17.1733 46.1998 17.2759V17.3052C46.356 17.354 46.5074 17.4346 46.6539 17.5469C46.8004 17.6543 46.942 17.7812 47.0787 17.9277C47.2154 18.0742 47.3448 18.2329 47.4669 18.4038C47.5938 18.5698 47.7086 18.7334 47.8111 18.8945L49.796 22ZM43.3507 13.2695V16.1919H44.3761C44.8839 16.1919 45.2916 16.0454 45.5992 15.7524C45.9117 15.4546 46.0679 15.0859 46.0679 14.6465C46.0679 13.7285 45.5186 13.2695 44.42 13.2695H43.3507ZM57.0951 18.9092H52.2025C52.2807 19.998 52.9667 20.5425 54.2606 20.5425C55.0858 20.5425 55.8109 20.3472 56.4359 19.9565V21.6265C55.7426 21.9976 54.8417 22.1831 53.7333 22.1831C52.5224 22.1831 51.5824 21.8486 50.9135 21.1797C50.2445 20.5059 49.9101 19.5684 49.9101 18.3672C49.9101 17.1221 50.2714 16.1357 50.994 15.4082C51.7167 14.6807 52.6054 14.3169 53.6601 14.3169C54.7538 14.3169 55.5985 14.6416 56.1942 15.291C56.7948 15.9404 57.0951 16.8218 57.0951 17.9351V18.9092ZM54.9491 17.4883C54.9491 16.4141 54.5145 15.877 53.6454 15.877C53.2743 15.877 52.952 16.0308 52.6786 16.3384C52.4101 16.646 52.2465 17.0293 52.1879 17.4883H54.9491ZM58.1613 21.8022V19.9272C58.5422 20.1567 58.9206 20.3276 59.2966 20.4399C59.6775 20.5522 60.0363 20.6084 60.3733 20.6084C60.7834 20.6084 61.1057 20.5522 61.3401 20.4399C61.5793 20.3276 61.6989 20.1567 61.6989 19.9272C61.6989 19.7808 61.6452 19.6587 61.5378 19.561C61.4304 19.4634 61.2912 19.3779 61.1203 19.3047C60.9543 19.2314 60.7712 19.1655 60.571 19.1069C60.3708 19.0483 60.1779 18.9824 59.9924 18.9092C59.6945 18.7969 59.4309 18.6772 59.2014 18.5503C58.9768 18.4185 58.7863 18.2671 58.6301 18.0962C58.4787 17.9253 58.3615 17.7275 58.2785 17.5029C58.2004 17.2783 58.1613 17.0122 58.1613 16.7046C58.1613 16.2847 58.2517 15.9233 58.4323 15.6206C58.6179 15.3179 58.862 15.0713 59.1648 14.8809C59.4724 14.6855 59.8215 14.5439 60.2121 14.4561C60.6076 14.3633 61.0178 14.3169 61.4426 14.3169C61.7746 14.3169 62.1115 14.3438 62.4533 14.3975C62.7951 14.4463 63.132 14.5195 63.4641 14.6172V16.4043C63.1711 16.2334 62.8562 16.1064 62.5193 16.0234C62.1872 15.9355 61.8601 15.8916 61.5378 15.8916C61.3864 15.8916 61.2424 15.9062 61.1057 15.9355C60.9738 15.96 60.8567 15.999 60.7541 16.0527C60.6516 16.1016 60.571 16.1675 60.5124 16.2505C60.4538 16.3286 60.4245 16.4189 60.4245 16.5215C60.4245 16.6582 60.4685 16.7754 60.5564 16.873C60.6443 16.9707 60.759 17.0562 60.9006 17.1294C61.0422 17.1978 61.1985 17.2612 61.3694 17.3198C61.5451 17.3735 61.7185 17.4297 61.8894 17.4883C62.197 17.5957 62.4753 17.7129 62.7243 17.8398C62.9734 17.9668 63.1858 18.1157 63.3615 18.2866C63.5422 18.4575 63.6789 18.6577 63.7717 18.8872C63.8694 19.1167 63.9182 19.3901 63.9182 19.7075C63.9182 20.1519 63.8205 20.5327 63.6252 20.8501C63.4348 21.1626 63.1784 21.4189 62.8562 21.6191C62.5388 21.8145 62.1701 21.9561 61.7502 22.0439C61.3352 22.1367 60.903 22.1831 60.4538 22.1831C59.6286 22.1831 58.8645 22.0562 58.1613 21.8022ZM72.1768 18.9092H67.2842C67.3623 19.998 68.0484 20.5425 69.3423 20.5425C70.1675 20.5425 70.8926 20.3472 71.5176 19.9565V21.6265C70.8243 21.9976 69.9234 22.1831 68.815 22.1831C67.604 22.1831 66.6641 21.8486 65.9952 21.1797C65.3262 20.5059 64.9917 19.5684 64.9917 18.3672C64.9917 17.1221 65.3531 16.1357 66.0757 15.4082C66.7984 14.6807 67.687 14.3169 68.7417 14.3169C69.8355 14.3169 70.6802 14.6416 71.2759 15.291C71.8765 15.9404 72.1768 16.8218 72.1768 17.9351V18.9092ZM70.0308 17.4883C70.0308 16.4141 69.5962 15.877 68.7271 15.877C68.356 15.877 68.0337 16.0308 67.7603 16.3384C67.4917 16.646 67.3282 17.0293 67.2696 17.4883H70.0308ZM79.974 22H77.784V20.9233H77.7547C77.2518 21.7632 76.5072 22.1831 75.5209 22.1831C74.7933 22.1831 74.2196 21.978 73.7997 21.5679C73.3846 21.1528 73.1771 20.6011 73.1771 19.9126C73.1771 18.4575 74.0389 17.6177 75.7626 17.3931L77.7987 17.1221C77.7987 16.3018 77.3544 15.8916 76.4657 15.8916C75.5721 15.8916 74.7225 16.1577 73.9169 16.6899V14.9468C74.2391 14.7808 74.6786 14.6343 75.2352 14.5073C75.7967 14.3804 76.307 14.3169 76.766 14.3169C78.9046 14.3169 79.974 15.3838 79.974 17.5176V22ZM77.7987 18.9531V18.4478L76.4364 18.6235C75.6844 18.7212 75.3085 19.0605 75.3085 19.6416C75.3085 19.9053 75.3988 20.1226 75.5795 20.2935C75.765 20.4595 76.014 20.5425 76.3265 20.5425C76.7611 20.5425 77.1151 20.3936 77.3885 20.0957C77.662 19.793 77.7987 19.4121 77.7987 18.9531ZM86.8776 16.5874C86.5993 16.436 86.2746 16.3604 85.9035 16.3604C85.4006 16.3604 85.0075 16.5459 84.7243 16.917C84.4411 17.2832 84.2995 17.7837 84.2995 18.4185V22H81.985V14.5H84.2995V15.8916H84.3288C84.695 14.876 85.3542 14.3682 86.3063 14.3682C86.5505 14.3682 86.7409 14.3975 86.8776 14.4561V16.5874ZM93.7666 21.729C93.2441 22.0317 92.4897 22.1831 91.5034 22.1831C90.3511 22.1831 89.4185 21.834 88.7056 21.1357C87.9927 20.4375 87.6362 19.5366 87.6362 18.4331C87.6362 17.1587 88.0171 16.1553 88.7788 15.4229C89.5454 14.6855 90.5684 14.3169 91.8477 14.3169C92.7314 14.3169 93.3711 14.4341 93.7666 14.6685V16.6313C93.2832 16.27 92.7437 16.0894 92.1479 16.0894C91.4839 16.0894 90.9565 16.2847 90.5659 16.6753C90.1802 17.061 89.9873 17.5957 89.9873 18.2793C89.9873 18.9434 90.1729 19.4658 90.5439 19.8467C90.915 20.2227 91.4253 20.4106 92.0747 20.4106C92.6509 20.4106 93.2148 20.23 93.7666 19.8687V21.729ZM102.67 22H100.363V17.7373C100.363 16.6387 99.9622 16.0894 99.1614 16.0894C98.7513 16.0894 98.4193 16.2432 98.1653 16.5508C97.9114 16.8584 97.7845 17.249 97.7845 17.7227V22H95.47V10.8965H97.7845V15.6133H97.8138C98.3802 14.749 99.1492 14.3169 100.121 14.3169C101.82 14.3169 102.67 15.3423 102.67 17.3931V22ZM117.861 21.2969C116.836 21.8877 115.561 22.1831 114.038 22.1831C112.349 22.1831 111.016 21.7168 110.039 20.7842C109.067 19.8467 108.582 18.5576 108.582 16.917C108.582 15.2666 109.114 13.9214 110.178 12.8813C111.243 11.8413 112.659 11.3213 114.426 11.3213C115.54 11.3213 116.521 11.4751 117.371 11.7827V14.002C116.56 13.5332 115.569 13.2988 114.397 13.2988C113.415 13.2988 112.615 13.6187 111.995 14.2583C111.379 14.8931 111.072 15.7427 111.072 16.8071C111.072 17.8862 111.348 18.7212 111.899 19.312C112.456 19.9028 113.206 20.1982 114.148 20.1982C114.714 20.1982 115.164 20.1177 115.496 19.9565V17.9058H113.394V16.0161H117.861V21.2969ZM126.098 22H123.908V20.9233H123.879C123.376 21.7632 122.631 22.1831 121.645 22.1831C120.917 22.1831 120.344 21.978 119.924 21.5679C119.509 21.1528 119.301 20.6011 119.301 19.9126C119.301 18.4575 120.163 17.6177 121.887 17.3931L123.923 17.1221C123.923 16.3018 123.478 15.8916 122.59 15.8916C121.696 15.8916 120.846 16.1577 120.041 16.6899V14.9468C120.363 14.7808 120.803 14.6343 121.359 14.5073C121.921 14.3804 122.431 14.3169 122.89 14.3169C125.029 14.3169 126.098 15.3838 126.098 17.5176V22ZM123.923 18.9531V18.4478L122.56 18.6235C121.808 18.7212 121.432 19.0605 121.432 19.6416C121.432 19.9053 121.523 20.1226 121.703 20.2935C121.889 20.4595 122.138 20.5425 122.45 20.5425C122.885 20.5425 123.239 20.3936 123.512 20.0957C123.786 19.793 123.923 19.4121 123.923 18.9531ZM132.643 21.9121C132.301 22.0928 131.786 22.1831 131.097 22.1831C129.466 22.1831 128.651 21.3359 128.651 19.6416V16.2065H127.435V14.5H128.651V12.8813L130.958 12.2222V14.5H132.643V16.2065H130.958V19.2388C130.958 20.02 131.268 20.4106 131.888 20.4106C132.132 20.4106 132.384 20.3398 132.643 20.1982V21.9121ZM140.813 18.9092H135.921C135.999 19.998 136.685 20.5425 137.979 20.5425C138.804 20.5425 139.529 20.3472 140.154 19.9565V21.6265C139.461 21.9976 138.56 22.1831 137.452 22.1831C136.241 22.1831 135.301 21.8486 134.632 21.1797C133.963 20.5059 133.628 19.5684 133.628 18.3672C133.628 17.1221 133.99 16.1357 134.712 15.4082C135.435 14.6807 136.324 14.3169 137.378 14.3169C138.472 14.3169 139.317 14.6416 139.913 15.291C140.513 15.9404 140.813 16.8218 140.813 17.9351V18.9092ZM138.667 17.4883C138.667 16.4141 138.233 15.877 137.364 15.877C136.993 15.877 136.67 16.0308 136.397 16.3384C136.128 16.646 135.965 17.0293 135.906 17.4883H138.667Z" fill="white"/>
<path d="M145 0H5C2.23858 0 0 2.23858 0 5V27C0 29.7614 2.23858 32 5 32H145C147.761 32 150 29.7614 150 27V5C150 2.23858 147.761 0 145 0Z" fill="url(#paint0_linear_31_24)"/>
<path d="M31 0H5C2.23858 0 0 2.23858 0 5V27C0 29.7614 2.23858 32 5 32H31V0Z" fill="#1FBFB1"/>
<path d="M18.2912 25.5063C17.0291 24.133 15.3401 21.9271 13.9351 19.4334C16.256 18.8906 17.9747 16.7116 17.9747 14.5345C17.9747 11.3254 15.4821 9.83591 12.2145 9.83591C10.5256 9.83591 9.17803 9.92125 7.91978 9.92125C6.77171 9.92125 5.62463 9.92125 4.91014 9.89345V10.725L5.99771 10.9245C6.74577 11.0684 7.17162 11.4098 7.17162 13.1879V24.4754C7.17162 26.2526 6.74579 26.5959 5.99771 26.7378L4.91014 26.9411V27.7698C5.68314 27.742 7.0297 27.6853 8.37724 27.6853C9.66624 27.6853 11.3283 27.742 12.0448 27.7698V26.9411L10.5543 26.7378C9.78142 26.6256 9.37847 26.2526 9.37847 24.4754V19.6915C10.0661 19.749 10.6675 19.749 11.5863 19.749C13.3338 22.8708 14.9958 25.2214 15.9396 26.3091C16.8008 27.342 18.1177 28 19.7797 28C20.266 28 20.7811 27.9146 21.0956 27.7698V27.0265C20.0646 27.0265 19.0336 26.3091 18.2912 25.5064L18.2912 25.5063ZM11.4415 18.459C10.4671 18.459 10.0394 18.4331 9.3785 18.3708V11.1825C10.0394 11.1249 10.9255 11.1249 11.6995 11.1249C14.1077 11.1249 15.5387 12.3871 15.5387 14.6773C15.5387 16.9408 13.9927 18.459 11.4415 18.459ZM20.1874 11.2275C20.1586 11.077 20.1327 10.9015 20.1097 10.6991C20.0857 10.4948 20.0703 10.2551 20.0608 9.97214C20.0512 9.69116 20.0473 9.34783 20.0473 8.95458C20.0473 8.55939 20.0512 8.22084 20.0608 7.9389C20.0703 7.65596 20.0857 7.41328 20.1097 7.21096C20.1327 7.00953 20.1586 6.83304 20.1874 6.6825C20.2152 6.53096 20.2516 6.38707 20.2987 6.24614C20.5451 5.50094 20.9489 4.94084 21.5138 4.5648C22.0777 4.18884 22.7692 4 23.5902 4C24.0122 4 24.3949 4.0489 24.7344 4.14858C25.0701 4.24738 25.3712 4.38361 25.6368 4.55811C25.8987 4.73076 26.125 4.93407 26.312 5.16427C26.5038 5.39535 26.6582 5.64187 26.7791 5.90662C26.826 5.99097 26.8127 6.05816 26.7379 6.1051L25.6953 6.53378C25.607 6.58083 25.5448 6.55684 25.4958 6.46374C25.2619 6.03023 25.0623 5.74544 24.7344 5.53832C24.4025 5.33208 24.0956 5.23425 23.5901 5.23425C23.0406 5.23425 22.795 5.34354 22.4508 5.59007C22.1093 5.83175 21.859 6.13582 21.7113 6.59898C21.6816 6.68247 21.6547 6.78607 21.6231 6.90786C21.5972 7.0316 21.576 7.18314 21.5627 7.36051C21.5492 7.53796 21.5368 7.75758 21.5253 8.01656C21.5176 8.27554 21.5138 8.59011 21.5138 8.95455C21.5138 9.32087 21.5176 9.63544 21.5253 9.89442C21.5368 10.1524 21.5492 10.372 21.5627 10.5495C21.576 10.7288 21.5972 10.8794 21.6231 11.0041C21.6547 11.124 21.6816 11.2275 21.7113 11.312C21.859 11.7733 22.0701 12.0255 22.3808 12.2279C22.6877 12.4331 23.0406 12.5809 23.5901 12.5809C24.0783 12.5809 24.5253 12.4418 24.8168 12.2298C25.1055 12.0178 25.3452 11.7378 25.4527 11.3551C25.4997 11.194 25.5601 10.9935 25.6014 10.748C25.6388 10.5025 25.6388 10.2426 25.6388 9.88392C25.6388 9.82726 25.6071 9.79847 25.5543 9.79847H23.8846C23.7906 9.79847 23.7445 9.7525 23.7445 9.65854V8.70137C23.7445 8.60641 23.7906 8.56033 23.8846 8.56033H26.9488C27.0448 8.56033 27.0899 8.60639 27.0899 8.70137V9.51946C27.0899 9.95296 27.0899 10.3548 27.0448 10.727C27.0016 11.0991 26.9431 11.4213 26.8693 11.6562C26.6352 12.3919 26.2641 12.9156 25.6954 13.3058C25.1247 13.6991 24.3891 13.911 23.5901 13.911C22.7692 13.911 22.0777 13.7221 21.5138 13.3471C20.9489 12.9673 20.5451 12.4101 20.2986 11.6649C20.2516 11.5239 20.2151 11.3791 20.1874 11.2275H20.1874Z" fill="white"/>
<defs>
<linearGradient id="paint0_linear_31_24" x1="0" y1="0" x2="0" y2="32" gradientUnits="userSpaceOnUse">
<stop stop-color="#BBBBBB" stop-opacity="0.1"/>
<stop offset="1" stop-opacity="0.1"/>
</linearGradient>
</defs>
</svg>
